<mxfile host="app.diagrams.net" modified="2024-06-28T05:30:31.188Z" agent="Mozilla/5.0 (Macintosh; Intel Mac OS X 10_15_7) AppleWebKit/537.36 (KHTML, like Gecko) Chrome/126.0.0.0 Safari/537.36" etag="YbTuoxNvNXUO5XhlBY3F" version="24.6.3" type="device" pages="7">
  <diagram name="페이지-1" id="8T8I8rmiKM1JU0g3Ghiw">
    <mxGraphModel dx="687" dy="363" grid="1" gridSize="10" guides="1" tooltips="1" connect="1" arrows="1" fold="1" page="1" pageScale="1" pageWidth="1169" pageHeight="827" math="0" shadow="0">
      <root>
        <mxCell id="0" />
        <mxCell id="1" parent="0" />
        <mxCell id="ZG9CUxtWimRa2M2JRPo--1" value="a" style="text;html=1;align=center;verticalAlign=middle;whiteSpace=wrap;rounded=0;fontSize=16;fontStyle=1" vertex="1" parent="1">
          <mxGeometry x="250" y="90" width="20" height="20" as="geometry" />
        </mxCell>
        <mxCell id="ZG9CUxtWimRa2M2JRPo--2" value="b" style="text;html=1;align=center;verticalAlign=middle;whiteSpace=wrap;rounded=0;fontSize=16;fontStyle=1" vertex="1" parent="1">
          <mxGeometry x="230" y="130" width="20" height="20" as="geometry" />
        </mxCell>
        <mxCell id="ZG9CUxtWimRa2M2JRPo--3" value="c" style="text;html=1;align=center;verticalAlign=middle;whiteSpace=wrap;rounded=0;fontSize=16;fontStyle=1" vertex="1" parent="1">
          <mxGeometry x="270" y="130" width="20" height="20" as="geometry" />
        </mxCell>
        <mxCell id="ZG9CUxtWimRa2M2JRPo--4" value="d" style="text;html=1;align=center;verticalAlign=middle;whiteSpace=wrap;rounded=0;fontSize=16;fontStyle=1" vertex="1" parent="1">
          <mxGeometry x="210" y="170" width="20" height="20" as="geometry" />
        </mxCell>
        <mxCell id="ZG9CUxtWimRa2M2JRPo--13" value="" style="endArrow=none;html=1;rounded=0;exitX=0.75;exitY=0;exitDx=0;exitDy=0;entryX=0.25;entryY=1;entryDx=0;entryDy=0;" edge="1" parent="1" source="ZG9CUxtWimRa2M2JRPo--2" target="ZG9CUxtWimRa2M2JRPo--1">
          <mxGeometry width="50" height="50" relative="1" as="geometry">
            <mxPoint x="230" y="130" as="sourcePoint" />
            <mxPoint x="250" y="110" as="targetPoint" />
          </mxGeometry>
        </mxCell>
        <mxCell id="ZG9CUxtWimRa2M2JRPo--14" value="" style="endArrow=none;html=1;rounded=0;exitX=0.75;exitY=0;exitDx=0;exitDy=0;entryX=0.25;entryY=1;entryDx=0;entryDy=0;" edge="1" parent="1" source="ZG9CUxtWimRa2M2JRPo--4" target="ZG9CUxtWimRa2M2JRPo--2">
          <mxGeometry width="50" height="50" relative="1" as="geometry">
            <mxPoint x="190" y="170" as="sourcePoint" />
            <mxPoint x="210" y="150" as="targetPoint" />
          </mxGeometry>
        </mxCell>
        <mxCell id="ZG9CUxtWimRa2M2JRPo--16" value="" style="endArrow=none;html=1;rounded=0;exitX=0.25;exitY=0;exitDx=0;exitDy=0;entryX=0.75;entryY=1;entryDx=0;entryDy=0;" edge="1" parent="1" source="ZG9CUxtWimRa2M2JRPo--3" target="ZG9CUxtWimRa2M2JRPo--1">
          <mxGeometry width="50" height="50" relative="1" as="geometry">
            <mxPoint x="240" y="140" as="sourcePoint" />
            <mxPoint x="260" y="120" as="targetPoint" />
          </mxGeometry>
        </mxCell>
        <mxCell id="ZG9CUxtWimRa2M2JRPo--21" value="" style="endArrow=none;html=1;rounded=0;strokeWidth=3.1496;" edge="1" parent="1">
          <mxGeometry width="50" height="50" relative="1" as="geometry">
            <mxPoint x="300" y="150" as="sourcePoint" />
            <mxPoint x="350" y="150" as="targetPoint" />
          </mxGeometry>
        </mxCell>
        <mxCell id="ZG9CUxtWimRa2M2JRPo--22" value="" style="endArrow=none;html=1;rounded=0;strokeWidth=3.1496;" edge="1" parent="1">
          <mxGeometry width="50" height="50" relative="1" as="geometry">
            <mxPoint x="300" y="139.9" as="sourcePoint" />
            <mxPoint x="350" y="140" as="targetPoint" />
          </mxGeometry>
        </mxCell>
        <mxCell id="ZG9CUxtWimRa2M2JRPo--23" value="" style="endArrow=none;html=1;rounded=0;entryX=1;entryY=1;entryDx=0;entryDy=0;" edge="1" parent="1">
          <mxGeometry width="50" height="50" relative="1" as="geometry">
            <mxPoint x="340" y="160" as="sourcePoint" />
            <mxPoint x="310" y="130" as="targetPoint" />
          </mxGeometry>
        </mxCell>
        <mxCell id="JZRAbsANop7a2nSxYdoa-1" value="a" style="text;html=1;align=center;verticalAlign=middle;whiteSpace=wrap;rounded=0;fontSize=16;fontStyle=1" vertex="1" parent="1">
          <mxGeometry x="380" y="90" width="20" height="20" as="geometry" />
        </mxCell>
        <mxCell id="JZRAbsANop7a2nSxYdoa-2" value="b" style="text;html=1;align=center;verticalAlign=middle;whiteSpace=wrap;rounded=0;fontSize=16;fontStyle=1" vertex="1" parent="1">
          <mxGeometry x="360" y="130" width="20" height="20" as="geometry" />
        </mxCell>
        <mxCell id="JZRAbsANop7a2nSxYdoa-3" value="c" style="text;html=1;align=center;verticalAlign=middle;whiteSpace=wrap;rounded=0;fontSize=16;fontStyle=1" vertex="1" parent="1">
          <mxGeometry x="400" y="130" width="20" height="20" as="geometry" />
        </mxCell>
        <mxCell id="JZRAbsANop7a2nSxYdoa-4" value="e" style="text;html=1;align=center;verticalAlign=middle;whiteSpace=wrap;rounded=0;fontSize=16;fontStyle=1" vertex="1" parent="1">
          <mxGeometry x="380" y="170" width="20" height="20" as="geometry" />
        </mxCell>
        <mxCell id="JZRAbsANop7a2nSxYdoa-5" value="" style="endArrow=none;html=1;rounded=0;exitX=0.75;exitY=0;exitDx=0;exitDy=0;entryX=0.25;entryY=1;entryDx=0;entryDy=0;" edge="1" parent="1" source="JZRAbsANop7a2nSxYdoa-2" target="JZRAbsANop7a2nSxYdoa-1">
          <mxGeometry width="50" height="50" relative="1" as="geometry">
            <mxPoint x="360" y="130" as="sourcePoint" />
            <mxPoint x="380" y="110" as="targetPoint" />
          </mxGeometry>
        </mxCell>
        <mxCell id="JZRAbsANop7a2nSxYdoa-6" value="" style="endArrow=none;html=1;rounded=0;exitX=0.25;exitY=0;exitDx=0;exitDy=0;entryX=0.75;entryY=1;entryDx=0;entryDy=0;" edge="1" parent="1" source="JZRAbsANop7a2nSxYdoa-4" target="JZRAbsANop7a2nSxYdoa-2">
          <mxGeometry width="50" height="50" relative="1" as="geometry">
            <mxPoint x="320" y="170" as="sourcePoint" />
            <mxPoint x="340" y="150" as="targetPoint" />
          </mxGeometry>
        </mxCell>
        <mxCell id="JZRAbsANop7a2nSxYdoa-7" value="" style="endArrow=none;html=1;rounded=0;exitX=0.25;exitY=0;exitDx=0;exitDy=0;entryX=0.75;entryY=1;entryDx=0;entryDy=0;" edge="1" parent="1" source="JZRAbsANop7a2nSxYdoa-3" target="JZRAbsANop7a2nSxYdoa-1">
          <mxGeometry width="50" height="50" relative="1" as="geometry">
            <mxPoint x="370" y="140" as="sourcePoint" />
            <mxPoint x="390" y="120" as="targetPoint" />
          </mxGeometry>
        </mxCell>
      </root>
    </mxGraphModel>
  </diagram>
  <diagram id="m5DTZrhHgGAlC4uCbBEu" name="페이지-2">
    <mxGraphModel dx="578" dy="353" grid="1" gridSize="10" guides="1" tooltips="1" connect="1" arrows="1" fold="1" page="1" pageScale="1" pageWidth="1169" pageHeight="827" math="0" shadow="0">
      <root>
        <mxCell id="0" />
        <mxCell id="1" parent="0" />
        <mxCell id="sFvjJMjwPsoFpHQelUhl-1" value="a" style="text;html=1;align=center;verticalAlign=middle;whiteSpace=wrap;rounded=0;fontSize=16;fontStyle=1" vertex="1" parent="1">
          <mxGeometry x="235" y="90" width="20" height="20" as="geometry" />
        </mxCell>
        <mxCell id="sFvjJMjwPsoFpHQelUhl-2" value="b" style="text;html=1;align=center;verticalAlign=middle;whiteSpace=wrap;rounded=0;fontSize=16;fontStyle=1" vertex="1" parent="1">
          <mxGeometry x="200" y="140" width="20" height="20" as="geometry" />
        </mxCell>
        <mxCell id="sFvjJMjwPsoFpHQelUhl-3" value="c" style="text;html=1;align=center;verticalAlign=middle;whiteSpace=wrap;rounded=0;fontSize=16;fontStyle=1" vertex="1" parent="1">
          <mxGeometry x="270" y="140" width="20" height="20" as="geometry" />
        </mxCell>
        <mxCell id="sFvjJMjwPsoFpHQelUhl-4" value="d" style="text;html=1;align=center;verticalAlign=middle;whiteSpace=wrap;rounded=0;fontSize=16;fontStyle=1" vertex="1" parent="1">
          <mxGeometry x="220" y="190" width="20" height="20" as="geometry" />
        </mxCell>
        <mxCell id="sFvjJMjwPsoFpHQelUhl-5" value="" style="endArrow=none;html=1;rounded=0;exitX=0.5;exitY=0;exitDx=0;exitDy=0;entryX=0.25;entryY=1;entryDx=0;entryDy=0;" edge="1" parent="1" source="sFvjJMjwPsoFpHQelUhl-2" target="sFvjJMjwPsoFpHQelUhl-1">
          <mxGeometry width="50" height="50" relative="1" as="geometry">
            <mxPoint x="215" y="130" as="sourcePoint" />
            <mxPoint x="235" y="110" as="targetPoint" />
          </mxGeometry>
        </mxCell>
        <mxCell id="sFvjJMjwPsoFpHQelUhl-6" value="" style="endArrow=none;html=1;rounded=0;exitX=0.5;exitY=0;exitDx=0;exitDy=0;entryX=0.75;entryY=1;entryDx=0;entryDy=0;" edge="1" parent="1" source="sFvjJMjwPsoFpHQelUhl-4" target="sFvjJMjwPsoFpHQelUhl-2">
          <mxGeometry width="50" height="50" relative="1" as="geometry">
            <mxPoint x="155" y="180" as="sourcePoint" />
            <mxPoint x="175" y="160" as="targetPoint" />
          </mxGeometry>
        </mxCell>
        <mxCell id="sFvjJMjwPsoFpHQelUhl-7" value="" style="endArrow=none;html=1;rounded=0;exitX=0.5;exitY=0;exitDx=0;exitDy=0;entryX=0.75;entryY=1;entryDx=0;entryDy=0;" edge="1" parent="1" source="sFvjJMjwPsoFpHQelUhl-3" target="sFvjJMjwPsoFpHQelUhl-1">
          <mxGeometry width="50" height="50" relative="1" as="geometry">
            <mxPoint x="240" y="140" as="sourcePoint" />
            <mxPoint x="260" y="120" as="targetPoint" />
          </mxGeometry>
        </mxCell>
        <mxCell id="sFvjJMjwPsoFpHQelUhl-8" value="" style="endArrow=none;html=1;rounded=0;strokeWidth=3.1496;" edge="1" parent="1">
          <mxGeometry width="50" height="50" relative="1" as="geometry">
            <mxPoint x="300" y="150" as="sourcePoint" />
            <mxPoint x="350" y="150" as="targetPoint" />
          </mxGeometry>
        </mxCell>
        <mxCell id="sFvjJMjwPsoFpHQelUhl-9" value="" style="endArrow=none;html=1;rounded=0;strokeWidth=3.1496;" edge="1" parent="1">
          <mxGeometry width="50" height="50" relative="1" as="geometry">
            <mxPoint x="300" y="139.9" as="sourcePoint" />
            <mxPoint x="350" y="140" as="targetPoint" />
          </mxGeometry>
        </mxCell>
        <mxCell id="sFvjJMjwPsoFpHQelUhl-11" value="a" style="text;html=1;align=center;verticalAlign=middle;whiteSpace=wrap;rounded=0;fontSize=16;fontStyle=1" vertex="1" parent="1">
          <mxGeometry x="390" y="90" width="20" height="20" as="geometry" />
        </mxCell>
        <mxCell id="sFvjJMjwPsoFpHQelUhl-12" value="b" style="text;html=1;align=center;verticalAlign=middle;whiteSpace=wrap;rounded=0;fontSize=16;fontStyle=1" vertex="1" parent="1">
          <mxGeometry x="350" y="140" width="20" height="20" as="geometry" />
        </mxCell>
        <mxCell id="sFvjJMjwPsoFpHQelUhl-13" value="c" style="text;html=1;align=center;verticalAlign=middle;whiteSpace=wrap;rounded=0;fontSize=16;fontStyle=1" vertex="1" parent="1">
          <mxGeometry x="430" y="140" width="20" height="20" as="geometry" />
        </mxCell>
        <mxCell id="sFvjJMjwPsoFpHQelUhl-14" value="d" style="text;html=1;align=center;verticalAlign=middle;whiteSpace=wrap;rounded=0;fontSize=16;fontStyle=1" vertex="1" parent="1">
          <mxGeometry x="370" y="190" width="20" height="20" as="geometry" />
        </mxCell>
        <mxCell id="sFvjJMjwPsoFpHQelUhl-15" value="" style="endArrow=none;html=1;rounded=0;exitX=0.5;exitY=0;exitDx=0;exitDy=0;entryX=0.25;entryY=1;entryDx=0;entryDy=0;" edge="1" parent="1" source="sFvjJMjwPsoFpHQelUhl-12" target="sFvjJMjwPsoFpHQelUhl-11">
          <mxGeometry width="50" height="50" relative="1" as="geometry">
            <mxPoint x="360" y="130" as="sourcePoint" />
            <mxPoint x="380" y="110" as="targetPoint" />
          </mxGeometry>
        </mxCell>
        <mxCell id="sFvjJMjwPsoFpHQelUhl-16" value="" style="endArrow=none;html=1;rounded=0;exitX=0.5;exitY=0;exitDx=0;exitDy=0;entryX=0.75;entryY=1;entryDx=0;entryDy=0;" edge="1" parent="1" source="sFvjJMjwPsoFpHQelUhl-14" target="sFvjJMjwPsoFpHQelUhl-12">
          <mxGeometry width="50" height="50" relative="1" as="geometry">
            <mxPoint x="320" y="170" as="sourcePoint" />
            <mxPoint x="340" y="150" as="targetPoint" />
          </mxGeometry>
        </mxCell>
        <mxCell id="sFvjJMjwPsoFpHQelUhl-17" value="" style="endArrow=none;html=1;rounded=0;exitX=0.5;exitY=0;exitDx=0;exitDy=0;entryX=0.75;entryY=1;entryDx=0;entryDy=0;" edge="1" parent="1" source="sFvjJMjwPsoFpHQelUhl-13" target="sFvjJMjwPsoFpHQelUhl-11">
          <mxGeometry width="50" height="50" relative="1" as="geometry">
            <mxPoint x="380" y="140" as="sourcePoint" />
            <mxPoint x="400" y="120" as="targetPoint" />
          </mxGeometry>
        </mxCell>
        <mxCell id="sFvjJMjwPsoFpHQelUhl-23" value="" style="endArrow=none;html=1;rounded=0;exitX=0.5;exitY=0;exitDx=0;exitDy=0;entryX=0.25;entryY=1;entryDx=0;entryDy=0;" edge="1" parent="1" source="sFvjJMjwPsoFpHQelUhl-44" target="sFvjJMjwPsoFpHQelUhl-14">
          <mxGeometry width="50" height="50" relative="1" as="geometry">
            <mxPoint x="370" y="240" as="sourcePoint" />
            <mxPoint x="375" y="190" as="targetPoint" />
          </mxGeometry>
        </mxCell>
        <mxCell id="sFvjJMjwPsoFpHQelUhl-28" value="*" style="text;html=1;align=center;verticalAlign=middle;whiteSpace=wrap;rounded=0;fontSize=16;fontStyle=1;rotation=90;" vertex="1" parent="1">
          <mxGeometry x="410" y="190" width="20" height="20" as="geometry" />
        </mxCell>
        <mxCell id="sFvjJMjwPsoFpHQelUhl-29" value="" style="endArrow=none;html=1;rounded=0;exitX=0;exitY=0.5;exitDx=0;exitDy=0;entryX=0.25;entryY=1;entryDx=0;entryDy=0;" edge="1" parent="1" source="sFvjJMjwPsoFpHQelUhl-28" target="sFvjJMjwPsoFpHQelUhl-13">
          <mxGeometry width="50" height="50" relative="1" as="geometry">
            <mxPoint x="415" y="190" as="sourcePoint" />
            <mxPoint x="435" y="160" as="targetPoint" />
          </mxGeometry>
        </mxCell>
        <mxCell id="sFvjJMjwPsoFpHQelUhl-30" value="*" style="text;html=1;align=center;verticalAlign=middle;whiteSpace=wrap;rounded=0;fontSize=16;fontStyle=1;rotation=90;" vertex="1" parent="1">
          <mxGeometry x="450" y="190" width="20" height="20" as="geometry" />
        </mxCell>
        <mxCell id="sFvjJMjwPsoFpHQelUhl-31" value="" style="endArrow=none;html=1;rounded=0;exitX=0;exitY=0.5;exitDx=0;exitDy=0;entryX=0.75;entryY=1;entryDx=0;entryDy=0;" edge="1" parent="1" source="sFvjJMjwPsoFpHQelUhl-30" target="sFvjJMjwPsoFpHQelUhl-13">
          <mxGeometry width="50" height="50" relative="1" as="geometry">
            <mxPoint x="455" y="190" as="sourcePoint" />
            <mxPoint x="475" y="160" as="targetPoint" />
          </mxGeometry>
        </mxCell>
        <mxCell id="sFvjJMjwPsoFpHQelUhl-33" value="" style="endArrow=none;html=1;rounded=0;exitX=0.5;exitY=0;exitDx=0;exitDy=0;entryX=0.75;entryY=1;entryDx=0;entryDy=0;" edge="1" source="sFvjJMjwPsoFpHQelUhl-45" parent="1">
          <mxGeometry width="50" height="50" relative="1" as="geometry">
            <mxPoint x="390" y="240" as="sourcePoint" />
            <mxPoint x="385" y="210" as="targetPoint" />
          </mxGeometry>
        </mxCell>
        <mxCell id="sFvjJMjwPsoFpHQelUhl-44" value="*" style="text;html=1;align=center;verticalAlign=middle;whiteSpace=wrap;rounded=0;fontSize=16;fontStyle=1" vertex="1" parent="1">
          <mxGeometry x="350" y="240" width="20" height="20" as="geometry" />
        </mxCell>
        <mxCell id="sFvjJMjwPsoFpHQelUhl-45" value="*" style="text;html=1;align=center;verticalAlign=middle;whiteSpace=wrap;rounded=0;fontSize=16;fontStyle=1" vertex="1" parent="1">
          <mxGeometry x="390" y="240" width="20" height="20" as="geometry" />
        </mxCell>
      </root>
    </mxGraphModel>
  </diagram>
  <diagram id="Og3jh7uU41DSSbXqpTyn" name="페이지-3">
    <mxGraphModel dx="494" dy="301" grid="1" gridSize="10" guides="1" tooltips="1" connect="1" arrows="1" fold="1" page="1" pageScale="1" pageWidth="1169" pageHeight="827" math="0" shadow="0">
      <root>
        <mxCell id="0" />
        <mxCell id="1" parent="0" />
        <mxCell id="IWrWHQ1H-5AdvBhWS3wF-21" value="" style="ellipse;whiteSpace=wrap;html=1;fillColor=#E6E6E6;" vertex="1" parent="1">
          <mxGeometry x="110" y="130" width="170" height="150" as="geometry" />
        </mxCell>
        <mxCell id="IWrWHQ1H-5AdvBhWS3wF-1" value="a" style="text;html=1;align=center;verticalAlign=middle;whiteSpace=wrap;rounded=0;fontSize=16;fontStyle=1" vertex="1" parent="1">
          <mxGeometry x="250" y="90" width="20" height="20" as="geometry" />
        </mxCell>
        <mxCell id="IWrWHQ1H-5AdvBhWS3wF-2" value="b" style="text;html=1;align=center;verticalAlign=middle;whiteSpace=wrap;rounded=0;fontSize=16;fontStyle=1" vertex="1" parent="1">
          <mxGeometry x="190" y="140" width="20" height="20" as="geometry" />
        </mxCell>
        <mxCell id="IWrWHQ1H-5AdvBhWS3wF-3" value="c" style="text;html=1;align=center;verticalAlign=middle;whiteSpace=wrap;rounded=0;fontSize=16;fontStyle=1" vertex="1" parent="1">
          <mxGeometry x="300" y="140" width="20" height="20" as="geometry" />
        </mxCell>
        <mxCell id="IWrWHQ1H-5AdvBhWS3wF-4" value="e" style="text;html=1;align=center;verticalAlign=middle;whiteSpace=wrap;rounded=0;fontSize=16;fontStyle=1" vertex="1" parent="1">
          <mxGeometry x="230" y="190" width="20" height="20" as="geometry" />
        </mxCell>
        <mxCell id="IWrWHQ1H-5AdvBhWS3wF-5" value="" style="endArrow=none;html=1;rounded=0;exitX=0.5;exitY=0;exitDx=0;exitDy=0;entryX=0.25;entryY=1;entryDx=0;entryDy=0;" edge="1" parent="1" source="IWrWHQ1H-5AdvBhWS3wF-2" target="IWrWHQ1H-5AdvBhWS3wF-1">
          <mxGeometry width="50" height="50" relative="1" as="geometry">
            <mxPoint x="215" y="130" as="sourcePoint" />
            <mxPoint x="235" y="110" as="targetPoint" />
          </mxGeometry>
        </mxCell>
        <mxCell id="IWrWHQ1H-5AdvBhWS3wF-6" value="" style="endArrow=none;html=1;rounded=0;exitX=0.5;exitY=0;exitDx=0;exitDy=0;entryX=0.75;entryY=1;entryDx=0;entryDy=0;" edge="1" parent="1" source="IWrWHQ1H-5AdvBhWS3wF-4" target="IWrWHQ1H-5AdvBhWS3wF-2">
          <mxGeometry width="50" height="50" relative="1" as="geometry">
            <mxPoint x="155" y="180" as="sourcePoint" />
            <mxPoint x="175" y="160" as="targetPoint" />
          </mxGeometry>
        </mxCell>
        <mxCell id="IWrWHQ1H-5AdvBhWS3wF-7" value="" style="endArrow=none;html=1;rounded=0;exitX=0.5;exitY=0;exitDx=0;exitDy=0;entryX=0.75;entryY=1;entryDx=0;entryDy=0;" edge="1" parent="1" source="IWrWHQ1H-5AdvBhWS3wF-3" target="IWrWHQ1H-5AdvBhWS3wF-1">
          <mxGeometry width="50" height="50" relative="1" as="geometry">
            <mxPoint x="240" y="140" as="sourcePoint" />
            <mxPoint x="260" y="120" as="targetPoint" />
          </mxGeometry>
        </mxCell>
        <mxCell id="IWrWHQ1H-5AdvBhWS3wF-8" value="d" style="text;html=1;align=center;verticalAlign=middle;whiteSpace=wrap;rounded=0;fontSize=16;fontStyle=1" vertex="1" parent="1">
          <mxGeometry x="150" y="190" width="20" height="20" as="geometry" />
        </mxCell>
        <mxCell id="IWrWHQ1H-5AdvBhWS3wF-9" value="" style="endArrow=none;html=1;rounded=0;exitX=0.5;exitY=0;exitDx=0;exitDy=0;entryX=0.25;entryY=1;entryDx=0;entryDy=0;" edge="1" parent="1" source="IWrWHQ1H-5AdvBhWS3wF-8" target="IWrWHQ1H-5AdvBhWS3wF-2">
          <mxGeometry width="50" height="50" relative="1" as="geometry">
            <mxPoint x="240" y="200" as="sourcePoint" />
            <mxPoint x="225" y="170" as="targetPoint" />
          </mxGeometry>
        </mxCell>
        <mxCell id="IWrWHQ1H-5AdvBhWS3wF-10" value="i" style="text;html=1;align=center;verticalAlign=middle;whiteSpace=wrap;rounded=0;fontSize=16;fontStyle=1" vertex="1" parent="1">
          <mxGeometry x="170" y="240" width="20" height="20" as="geometry" />
        </mxCell>
        <mxCell id="IWrWHQ1H-5AdvBhWS3wF-11" value="" style="endArrow=none;html=1;rounded=0;exitX=0.5;exitY=0;exitDx=0;exitDy=0;entryX=0.75;entryY=1;entryDx=0;entryDy=0;" edge="1" parent="1" source="IWrWHQ1H-5AdvBhWS3wF-10" target="IWrWHQ1H-5AdvBhWS3wF-8">
          <mxGeometry width="50" height="50" relative="1" as="geometry">
            <mxPoint x="105" y="230" as="sourcePoint" />
            <mxPoint x="165" y="210" as="targetPoint" />
          </mxGeometry>
        </mxCell>
        <mxCell id="IWrWHQ1H-5AdvBhWS3wF-12" value="h" style="text;html=1;align=center;verticalAlign=middle;whiteSpace=wrap;rounded=0;fontSize=16;fontStyle=1" vertex="1" parent="1">
          <mxGeometry x="130" y="240" width="20" height="20" as="geometry" />
        </mxCell>
        <mxCell id="IWrWHQ1H-5AdvBhWS3wF-13" value="" style="endArrow=none;html=1;rounded=0;exitX=0.5;exitY=0;exitDx=0;exitDy=0;entryX=0.25;entryY=1;entryDx=0;entryDy=0;" edge="1" parent="1" source="IWrWHQ1H-5AdvBhWS3wF-12" target="IWrWHQ1H-5AdvBhWS3wF-8">
          <mxGeometry width="50" height="50" relative="1" as="geometry">
            <mxPoint x="190" y="250" as="sourcePoint" />
            <mxPoint x="155" y="210" as="targetPoint" />
          </mxGeometry>
        </mxCell>
        <mxCell id="IWrWHQ1H-5AdvBhWS3wF-14" value="j" style="text;html=1;align=center;verticalAlign=middle;whiteSpace=wrap;rounded=0;fontSize=16;fontStyle=1" vertex="1" parent="1">
          <mxGeometry x="210" y="240" width="20" height="20" as="geometry" />
        </mxCell>
        <mxCell id="IWrWHQ1H-5AdvBhWS3wF-15" value="" style="endArrow=none;html=1;rounded=0;exitX=0.5;exitY=0;exitDx=0;exitDy=0;entryX=0.25;entryY=1;entryDx=0;entryDy=0;" edge="1" parent="1" source="IWrWHQ1H-5AdvBhWS3wF-14" target="IWrWHQ1H-5AdvBhWS3wF-4">
          <mxGeometry width="50" height="50" relative="1" as="geometry">
            <mxPoint x="230" y="260" as="sourcePoint" />
            <mxPoint x="195" y="220" as="targetPoint" />
          </mxGeometry>
        </mxCell>
        <mxCell id="IWrWHQ1H-5AdvBhWS3wF-16" value="f" style="text;html=1;align=center;verticalAlign=middle;whiteSpace=wrap;rounded=0;fontSize=16;fontStyle=1" vertex="1" parent="1">
          <mxGeometry x="280" y="190" width="20" height="20" as="geometry" />
        </mxCell>
        <mxCell id="IWrWHQ1H-5AdvBhWS3wF-17" value="" style="endArrow=none;html=1;rounded=0;exitX=0.5;exitY=0;exitDx=0;exitDy=0;entryX=0.25;entryY=1;entryDx=0;entryDy=0;" edge="1" parent="1" source="IWrWHQ1H-5AdvBhWS3wF-16" target="IWrWHQ1H-5AdvBhWS3wF-3">
          <mxGeometry width="50" height="50" relative="1" as="geometry">
            <mxPoint x="280" y="220" as="sourcePoint" />
            <mxPoint x="290" y="190" as="targetPoint" />
          </mxGeometry>
        </mxCell>
        <mxCell id="IWrWHQ1H-5AdvBhWS3wF-18" value="m" style="text;html=1;align=center;verticalAlign=middle;whiteSpace=wrap;rounded=0;fontSize=16;fontStyle=1" vertex="1" parent="1">
          <mxGeometry x="300" y="240" width="20" height="20" as="geometry" />
        </mxCell>
        <mxCell id="IWrWHQ1H-5AdvBhWS3wF-19" value="" style="endArrow=none;html=1;rounded=0;exitX=0.5;exitY=0;exitDx=0;exitDy=0;entryX=0.75;entryY=1;entryDx=0;entryDy=0;" edge="1" parent="1" source="IWrWHQ1H-5AdvBhWS3wF-18" target="IWrWHQ1H-5AdvBhWS3wF-16">
          <mxGeometry width="50" height="50" relative="1" as="geometry">
            <mxPoint x="315" y="290" as="sourcePoint" />
            <mxPoint x="340" y="240" as="targetPoint" />
          </mxGeometry>
        </mxCell>
      </root>
    </mxGraphModel>
  </diagram>
  <diagram id="Yyrftf0mPVDSBKT5odEP" name="크기 3">
    <mxGraphModel dx="595" dy="363" grid="1" gridSize="10" guides="1" tooltips="1" connect="1" arrows="1" fold="1" page="1" pageScale="1" pageWidth="1169" pageHeight="827" math="0" shadow="0">
      <root>
        <mxCell id="0" />
        <mxCell id="1" parent="0" />
        <mxCell id="GidxiCNZSkUFjXSgNZwR-1" value="" style="ellipse;whiteSpace=wrap;html=1;aspect=fixed;" vertex="1" parent="1">
          <mxGeometry x="320" y="80" width="10" height="10" as="geometry" />
        </mxCell>
        <mxCell id="GidxiCNZSkUFjXSgNZwR-2" value="" style="ellipse;whiteSpace=wrap;html=1;aspect=fixed;" vertex="1" parent="1">
          <mxGeometry x="290" y="110" width="10" height="10" as="geometry" />
        </mxCell>
        <mxCell id="GidxiCNZSkUFjXSgNZwR-3" value="" style="endArrow=none;html=1;rounded=0;entryX=0;entryY=1;entryDx=0;entryDy=0;exitX=1;exitY=0;exitDx=0;exitDy=0;" edge="1" parent="1" source="GidxiCNZSkUFjXSgNZwR-2" target="GidxiCNZSkUFjXSgNZwR-1">
          <mxGeometry width="50" height="50" relative="1" as="geometry">
            <mxPoint x="420" y="250" as="sourcePoint" />
            <mxPoint x="330" y="110" as="targetPoint" />
          </mxGeometry>
        </mxCell>
        <mxCell id="GidxiCNZSkUFjXSgNZwR-4" value="" style="ellipse;whiteSpace=wrap;html=1;aspect=fixed;" vertex="1" parent="1">
          <mxGeometry x="260" y="140" width="10" height="10" as="geometry" />
        </mxCell>
        <mxCell id="GidxiCNZSkUFjXSgNZwR-5" value="" style="endArrow=none;html=1;rounded=0;exitX=1;exitY=0;exitDx=0;exitDy=0;entryX=0;entryY=1;entryDx=0;entryDy=0;" edge="1" parent="1" source="GidxiCNZSkUFjXSgNZwR-4" target="GidxiCNZSkUFjXSgNZwR-2">
          <mxGeometry width="50" height="50" relative="1" as="geometry">
            <mxPoint x="270" y="180" as="sourcePoint" />
            <mxPoint x="300" y="150" as="targetPoint" />
          </mxGeometry>
        </mxCell>
        <mxCell id="GidxiCNZSkUFjXSgNZwR-6" value="" style="ellipse;whiteSpace=wrap;html=1;aspect=fixed;" vertex="1" parent="1">
          <mxGeometry x="400" y="80" width="10" height="10" as="geometry" />
        </mxCell>
        <mxCell id="GidxiCNZSkUFjXSgNZwR-7" value="" style="ellipse;whiteSpace=wrap;html=1;aspect=fixed;" vertex="1" parent="1">
          <mxGeometry x="370" y="110" width="10" height="10" as="geometry" />
        </mxCell>
        <mxCell id="GidxiCNZSkUFjXSgNZwR-8" value="" style="endArrow=none;html=1;rounded=0;entryX=0;entryY=1;entryDx=0;entryDy=0;exitX=1;exitY=0;exitDx=0;exitDy=0;" edge="1" parent="1" source="GidxiCNZSkUFjXSgNZwR-7" target="GidxiCNZSkUFjXSgNZwR-6">
          <mxGeometry width="50" height="50" relative="1" as="geometry">
            <mxPoint x="500" y="250" as="sourcePoint" />
            <mxPoint x="410" y="110" as="targetPoint" />
          </mxGeometry>
        </mxCell>
        <mxCell id="GidxiCNZSkUFjXSgNZwR-9" value="" style="ellipse;whiteSpace=wrap;html=1;aspect=fixed;" vertex="1" parent="1">
          <mxGeometry x="400" y="140" width="10" height="10" as="geometry" />
        </mxCell>
        <mxCell id="GidxiCNZSkUFjXSgNZwR-10" value="" style="endArrow=none;html=1;rounded=0;exitX=0;exitY=0;exitDx=0;exitDy=0;entryX=1;entryY=1;entryDx=0;entryDy=0;" edge="1" parent="1" source="GidxiCNZSkUFjXSgNZwR-9" target="GidxiCNZSkUFjXSgNZwR-7">
          <mxGeometry width="50" height="50" relative="1" as="geometry">
            <mxPoint x="350" y="180" as="sourcePoint" />
            <mxPoint x="380" y="150" as="targetPoint" />
          </mxGeometry>
        </mxCell>
        <mxCell id="GidxiCNZSkUFjXSgNZwR-11" value="" style="ellipse;whiteSpace=wrap;html=1;aspect=fixed;" vertex="1" parent="1">
          <mxGeometry x="480" y="80" width="10" height="10" as="geometry" />
        </mxCell>
        <mxCell id="GidxiCNZSkUFjXSgNZwR-12" value="" style="ellipse;whiteSpace=wrap;html=1;aspect=fixed;" vertex="1" parent="1">
          <mxGeometry x="450" y="110" width="10" height="10" as="geometry" />
        </mxCell>
        <mxCell id="GidxiCNZSkUFjXSgNZwR-13" value="" style="endArrow=none;html=1;rounded=0;entryX=0;entryY=1;entryDx=0;entryDy=0;exitX=1;exitY=0;exitDx=0;exitDy=0;" edge="1" parent="1" source="GidxiCNZSkUFjXSgNZwR-12" target="GidxiCNZSkUFjXSgNZwR-11">
          <mxGeometry width="50" height="50" relative="1" as="geometry">
            <mxPoint x="580" y="250" as="sourcePoint" />
            <mxPoint x="490" y="110" as="targetPoint" />
          </mxGeometry>
        </mxCell>
        <mxCell id="GidxiCNZSkUFjXSgNZwR-14" value="" style="ellipse;whiteSpace=wrap;html=1;aspect=fixed;" vertex="1" parent="1">
          <mxGeometry x="510" y="110" width="10" height="10" as="geometry" />
        </mxCell>
        <mxCell id="GidxiCNZSkUFjXSgNZwR-15" value="" style="endArrow=none;html=1;rounded=0;exitX=0;exitY=0;exitDx=0;exitDy=0;entryX=1;entryY=1;entryDx=0;entryDy=0;" edge="1" parent="1" source="GidxiCNZSkUFjXSgNZwR-14" target="GidxiCNZSkUFjXSgNZwR-11">
          <mxGeometry width="50" height="50" relative="1" as="geometry">
            <mxPoint x="430" y="180" as="sourcePoint" />
            <mxPoint x="460" y="150" as="targetPoint" />
          </mxGeometry>
        </mxCell>
        <mxCell id="GidxiCNZSkUFjXSgNZwR-20" value="" style="ellipse;whiteSpace=wrap;html=1;aspect=fixed;" vertex="1" parent="1">
          <mxGeometry x="560" y="80" width="10" height="10" as="geometry" />
        </mxCell>
        <mxCell id="GidxiCNZSkUFjXSgNZwR-21" value="" style="ellipse;whiteSpace=wrap;html=1;aspect=fixed;" vertex="1" parent="1">
          <mxGeometry x="560" y="140" width="10" height="10" as="geometry" />
        </mxCell>
        <mxCell id="GidxiCNZSkUFjXSgNZwR-22" value="" style="endArrow=none;html=1;rounded=0;entryX=0;entryY=1;entryDx=0;entryDy=0;exitX=1;exitY=0;exitDx=0;exitDy=0;" edge="1" parent="1" source="GidxiCNZSkUFjXSgNZwR-21" target="GidxiCNZSkUFjXSgNZwR-23">
          <mxGeometry width="50" height="50" relative="1" as="geometry">
            <mxPoint x="660" y="250" as="sourcePoint" />
            <mxPoint x="570" y="110" as="targetPoint" />
          </mxGeometry>
        </mxCell>
        <mxCell id="GidxiCNZSkUFjXSgNZwR-23" value="" style="ellipse;whiteSpace=wrap;html=1;aspect=fixed;" vertex="1" parent="1">
          <mxGeometry x="590" y="110" width="10" height="10" as="geometry" />
        </mxCell>
        <mxCell id="GidxiCNZSkUFjXSgNZwR-24" value="" style="endArrow=none;html=1;rounded=0;exitX=0;exitY=0;exitDx=0;exitDy=0;entryX=1;entryY=1;entryDx=0;entryDy=0;" edge="1" parent="1" source="GidxiCNZSkUFjXSgNZwR-23" target="GidxiCNZSkUFjXSgNZwR-20">
          <mxGeometry width="50" height="50" relative="1" as="geometry">
            <mxPoint x="510" y="180" as="sourcePoint" />
            <mxPoint x="540" y="150" as="targetPoint" />
          </mxGeometry>
        </mxCell>
        <mxCell id="GidxiCNZSkUFjXSgNZwR-25" value="" style="ellipse;whiteSpace=wrap;html=1;aspect=fixed;" vertex="1" parent="1">
          <mxGeometry x="640" y="80" width="10" height="10" as="geometry" />
        </mxCell>
        <mxCell id="GidxiCNZSkUFjXSgNZwR-26" value="" style="ellipse;whiteSpace=wrap;html=1;aspect=fixed;" vertex="1" parent="1">
          <mxGeometry x="700" y="140" width="10" height="10" as="geometry" />
        </mxCell>
        <mxCell id="GidxiCNZSkUFjXSgNZwR-27" value="" style="endArrow=none;html=1;rounded=0;entryX=1;entryY=1;entryDx=0;entryDy=0;exitX=0;exitY=0;exitDx=0;exitDy=0;" edge="1" parent="1" source="GidxiCNZSkUFjXSgNZwR-26" target="GidxiCNZSkUFjXSgNZwR-28">
          <mxGeometry width="50" height="50" relative="1" as="geometry">
            <mxPoint x="740" y="250" as="sourcePoint" />
            <mxPoint x="650" y="110" as="targetPoint" />
          </mxGeometry>
        </mxCell>
        <mxCell id="GidxiCNZSkUFjXSgNZwR-28" value="" style="ellipse;whiteSpace=wrap;html=1;aspect=fixed;" vertex="1" parent="1">
          <mxGeometry x="670" y="110" width="10" height="10" as="geometry" />
        </mxCell>
        <mxCell id="GidxiCNZSkUFjXSgNZwR-29" value="" style="endArrow=none;html=1;rounded=0;entryX=1;entryY=1;entryDx=0;entryDy=0;" edge="1" parent="1" source="GidxiCNZSkUFjXSgNZwR-28" target="GidxiCNZSkUFjXSgNZwR-25">
          <mxGeometry width="50" height="50" relative="1" as="geometry">
            <mxPoint x="590" y="180" as="sourcePoint" />
            <mxPoint x="620" y="150" as="targetPoint" />
          </mxGeometry>
        </mxCell>
      </root>
    </mxGraphModel>
  </diagram>
  <diagram id="JcMdZM1TOqqzBPkZo-_i" name="크기 4">
    <mxGraphModel dx="1012" dy="617" grid="1" gridSize="10" guides="1" tooltips="1" connect="1" arrows="1" fold="1" page="1" pageScale="1" pageWidth="1169" pageHeight="827" math="0" shadow="0">
      <root>
        <mxCell id="0" />
        <mxCell id="1" parent="0" />
        <mxCell id="_CVTH97Yd--CAdnfj3gm-1" value="" style="ellipse;whiteSpace=wrap;html=1;aspect=fixed;" vertex="1" parent="1">
          <mxGeometry x="161" y="80" width="10" height="10" as="geometry" />
        </mxCell>
        <mxCell id="_CVTH97Yd--CAdnfj3gm-2" value="" style="ellipse;whiteSpace=wrap;html=1;aspect=fixed;" vertex="1" parent="1">
          <mxGeometry x="131" y="110" width="10" height="10" as="geometry" />
        </mxCell>
        <mxCell id="_CVTH97Yd--CAdnfj3gm-3" value="" style="endArrow=none;html=1;rounded=0;entryX=0;entryY=1;entryDx=0;entryDy=0;exitX=1;exitY=0;exitDx=0;exitDy=0;" edge="1" parent="1" source="_CVTH97Yd--CAdnfj3gm-2" target="_CVTH97Yd--CAdnfj3gm-1">
          <mxGeometry width="50" height="50" relative="1" as="geometry">
            <mxPoint x="261" y="250" as="sourcePoint" />
            <mxPoint x="171" y="110" as="targetPoint" />
          </mxGeometry>
        </mxCell>
        <mxCell id="_CVTH97Yd--CAdnfj3gm-4" value="" style="ellipse;whiteSpace=wrap;html=1;aspect=fixed;" vertex="1" parent="1">
          <mxGeometry x="101" y="140" width="10" height="10" as="geometry" />
        </mxCell>
        <mxCell id="_CVTH97Yd--CAdnfj3gm-5" value="" style="endArrow=none;html=1;rounded=0;exitX=1;exitY=0;exitDx=0;exitDy=0;entryX=0;entryY=1;entryDx=0;entryDy=0;" edge="1" parent="1" source="_CVTH97Yd--CAdnfj3gm-4" target="_CVTH97Yd--CAdnfj3gm-2">
          <mxGeometry width="50" height="50" relative="1" as="geometry">
            <mxPoint x="111" y="180" as="sourcePoint" />
            <mxPoint x="141" y="150" as="targetPoint" />
          </mxGeometry>
        </mxCell>
        <mxCell id="_CVTH97Yd--CAdnfj3gm-6" value="" style="ellipse;whiteSpace=wrap;html=1;aspect=fixed;" vertex="1" parent="1">
          <mxGeometry x="309" y="80" width="10" height="10" as="geometry" />
        </mxCell>
        <mxCell id="_CVTH97Yd--CAdnfj3gm-7" value="" style="ellipse;whiteSpace=wrap;html=1;aspect=fixed;" vertex="1" parent="1">
          <mxGeometry x="279" y="110" width="10" height="10" as="geometry" />
        </mxCell>
        <mxCell id="_CVTH97Yd--CAdnfj3gm-8" value="" style="endArrow=none;html=1;rounded=0;entryX=0;entryY=1;entryDx=0;entryDy=0;exitX=1;exitY=0;exitDx=0;exitDy=0;" edge="1" parent="1" source="_CVTH97Yd--CAdnfj3gm-7" target="_CVTH97Yd--CAdnfj3gm-6">
          <mxGeometry width="50" height="50" relative="1" as="geometry">
            <mxPoint x="409" y="250" as="sourcePoint" />
            <mxPoint x="319" y="110" as="targetPoint" />
          </mxGeometry>
        </mxCell>
        <mxCell id="_CVTH97Yd--CAdnfj3gm-9" value="" style="ellipse;whiteSpace=wrap;html=1;aspect=fixed;" vertex="1" parent="1">
          <mxGeometry x="309" y="140" width="10" height="10" as="geometry" />
        </mxCell>
        <mxCell id="_CVTH97Yd--CAdnfj3gm-10" value="" style="endArrow=none;html=1;rounded=0;exitX=0;exitY=0;exitDx=0;exitDy=0;entryX=1;entryY=1;entryDx=0;entryDy=0;" edge="1" parent="1" source="_CVTH97Yd--CAdnfj3gm-9" target="_CVTH97Yd--CAdnfj3gm-7">
          <mxGeometry width="50" height="50" relative="1" as="geometry">
            <mxPoint x="259" y="180" as="sourcePoint" />
            <mxPoint x="289" y="150" as="targetPoint" />
          </mxGeometry>
        </mxCell>
        <mxCell id="_CVTH97Yd--CAdnfj3gm-26" value="" style="ellipse;whiteSpace=wrap;html=1;aspect=fixed;" vertex="1" parent="1">
          <mxGeometry x="70" y="171" width="10" height="10" as="geometry" />
        </mxCell>
        <mxCell id="_CVTH97Yd--CAdnfj3gm-27" value="" style="endArrow=none;html=1;rounded=0;exitX=1;exitY=0;exitDx=0;exitDy=0;entryX=0;entryY=1;entryDx=0;entryDy=0;" edge="1" parent="1" source="_CVTH97Yd--CAdnfj3gm-26" target="_CVTH97Yd--CAdnfj3gm-4">
          <mxGeometry width="50" height="50" relative="1" as="geometry">
            <mxPoint x="80" y="211" as="sourcePoint" />
            <mxPoint x="101" y="150" as="targetPoint" />
          </mxGeometry>
        </mxCell>
        <mxCell id="_CVTH97Yd--CAdnfj3gm-28" value="" style="ellipse;whiteSpace=wrap;html=1;aspect=fixed;" vertex="1" parent="1">
          <mxGeometry x="210" y="80" width="10" height="10" as="geometry" />
        </mxCell>
        <mxCell id="_CVTH97Yd--CAdnfj3gm-29" value="" style="ellipse;whiteSpace=wrap;html=1;aspect=fixed;" vertex="1" parent="1">
          <mxGeometry x="180" y="110" width="10" height="10" as="geometry" />
        </mxCell>
        <mxCell id="_CVTH97Yd--CAdnfj3gm-30" value="" style="endArrow=none;html=1;rounded=0;entryX=0;entryY=1;entryDx=0;entryDy=0;exitX=1;exitY=0;exitDx=0;exitDy=0;" edge="1" parent="1" source="_CVTH97Yd--CAdnfj3gm-29" target="_CVTH97Yd--CAdnfj3gm-28">
          <mxGeometry width="50" height="50" relative="1" as="geometry">
            <mxPoint x="310" y="250" as="sourcePoint" />
            <mxPoint x="220" y="110" as="targetPoint" />
          </mxGeometry>
        </mxCell>
        <mxCell id="_CVTH97Yd--CAdnfj3gm-31" value="" style="ellipse;whiteSpace=wrap;html=1;aspect=fixed;" vertex="1" parent="1">
          <mxGeometry x="150" y="140" width="10" height="10" as="geometry" />
        </mxCell>
        <mxCell id="_CVTH97Yd--CAdnfj3gm-32" value="" style="endArrow=none;html=1;rounded=0;exitX=1;exitY=0;exitDx=0;exitDy=0;entryX=0;entryY=1;entryDx=0;entryDy=0;" edge="1" parent="1" source="_CVTH97Yd--CAdnfj3gm-31" target="_CVTH97Yd--CAdnfj3gm-29">
          <mxGeometry width="50" height="50" relative="1" as="geometry">
            <mxPoint x="160" y="180" as="sourcePoint" />
            <mxPoint x="190" y="150" as="targetPoint" />
          </mxGeometry>
        </mxCell>
        <mxCell id="_CVTH97Yd--CAdnfj3gm-33" value="" style="ellipse;whiteSpace=wrap;html=1;aspect=fixed;" vertex="1" parent="1">
          <mxGeometry x="180" y="171" width="10" height="10" as="geometry" />
        </mxCell>
        <mxCell id="_CVTH97Yd--CAdnfj3gm-34" value="" style="endArrow=none;html=1;rounded=0;exitX=0;exitY=0;exitDx=0;exitDy=0;entryX=1;entryY=1;entryDx=0;entryDy=0;" edge="1" parent="1" source="_CVTH97Yd--CAdnfj3gm-33" target="_CVTH97Yd--CAdnfj3gm-31">
          <mxGeometry width="50" height="50" relative="1" as="geometry">
            <mxPoint x="129" y="211" as="sourcePoint" />
            <mxPoint x="150" y="150" as="targetPoint" />
          </mxGeometry>
        </mxCell>
        <mxCell id="_CVTH97Yd--CAdnfj3gm-37" value="" style="ellipse;whiteSpace=wrap;html=1;aspect=fixed;" vertex="1" parent="1">
          <mxGeometry x="259" y="80" width="10" height="10" as="geometry" />
        </mxCell>
        <mxCell id="_CVTH97Yd--CAdnfj3gm-38" value="" style="ellipse;whiteSpace=wrap;html=1;aspect=fixed;" vertex="1" parent="1">
          <mxGeometry x="229" y="110" width="10" height="10" as="geometry" />
        </mxCell>
        <mxCell id="_CVTH97Yd--CAdnfj3gm-39" value="" style="endArrow=none;html=1;rounded=0;entryX=0;entryY=1;entryDx=0;entryDy=0;exitX=1;exitY=0;exitDx=0;exitDy=0;" edge="1" parent="1" source="_CVTH97Yd--CAdnfj3gm-38" target="_CVTH97Yd--CAdnfj3gm-37">
          <mxGeometry width="50" height="50" relative="1" as="geometry">
            <mxPoint x="359" y="250" as="sourcePoint" />
            <mxPoint x="269" y="110" as="targetPoint" />
          </mxGeometry>
        </mxCell>
        <mxCell id="_CVTH97Yd--CAdnfj3gm-40" value="" style="ellipse;whiteSpace=wrap;html=1;aspect=fixed;" vertex="1" parent="1">
          <mxGeometry x="199" y="140" width="10" height="10" as="geometry" />
        </mxCell>
        <mxCell id="_CVTH97Yd--CAdnfj3gm-41" value="" style="endArrow=none;html=1;rounded=0;exitX=1;exitY=0;exitDx=0;exitDy=0;entryX=0;entryY=1;entryDx=0;entryDy=0;" edge="1" parent="1" source="_CVTH97Yd--CAdnfj3gm-40" target="_CVTH97Yd--CAdnfj3gm-38">
          <mxGeometry width="50" height="50" relative="1" as="geometry">
            <mxPoint x="209" y="180" as="sourcePoint" />
            <mxPoint x="239" y="150" as="targetPoint" />
          </mxGeometry>
        </mxCell>
        <mxCell id="_CVTH97Yd--CAdnfj3gm-42" value="" style="ellipse;whiteSpace=wrap;html=1;aspect=fixed;" vertex="1" parent="1">
          <mxGeometry x="259" y="140" width="10" height="10" as="geometry" />
        </mxCell>
        <mxCell id="_CVTH97Yd--CAdnfj3gm-43" value="" style="endArrow=none;html=1;rounded=0;exitX=0;exitY=0;exitDx=0;exitDy=0;entryX=1;entryY=1;entryDx=0;entryDy=0;" edge="1" parent="1" source="_CVTH97Yd--CAdnfj3gm-42" target="_CVTH97Yd--CAdnfj3gm-38">
          <mxGeometry width="50" height="50" relative="1" as="geometry">
            <mxPoint x="178" y="211" as="sourcePoint" />
            <mxPoint x="199" y="150" as="targetPoint" />
          </mxGeometry>
        </mxCell>
        <mxCell id="_CVTH97Yd--CAdnfj3gm-45" value="" style="ellipse;whiteSpace=wrap;html=1;aspect=fixed;" vertex="1" parent="1">
          <mxGeometry x="279" y="171" width="10" height="10" as="geometry" />
        </mxCell>
        <mxCell id="_CVTH97Yd--CAdnfj3gm-46" value="" style="endArrow=none;html=1;rounded=0;exitX=1;exitY=0;exitDx=0;exitDy=0;entryX=0;entryY=1;entryDx=0;entryDy=0;" edge="1" parent="1" source="_CVTH97Yd--CAdnfj3gm-45" target="_CVTH97Yd--CAdnfj3gm-9">
          <mxGeometry width="50" height="50" relative="1" as="geometry">
            <mxPoint x="320" y="151" as="sourcePoint" />
            <mxPoint x="298" y="129" as="targetPoint" />
          </mxGeometry>
        </mxCell>
        <mxCell id="_CVTH97Yd--CAdnfj3gm-47" value="" style="ellipse;whiteSpace=wrap;html=1;aspect=fixed;" vertex="1" parent="1">
          <mxGeometry x="359" y="80" width="10" height="10" as="geometry" />
        </mxCell>
        <mxCell id="_CVTH97Yd--CAdnfj3gm-48" value="" style="ellipse;whiteSpace=wrap;html=1;aspect=fixed;" vertex="1" parent="1">
          <mxGeometry x="329" y="110" width="10" height="10" as="geometry" />
        </mxCell>
        <mxCell id="_CVTH97Yd--CAdnfj3gm-49" value="" style="endArrow=none;html=1;rounded=0;entryX=0;entryY=1;entryDx=0;entryDy=0;exitX=1;exitY=0;exitDx=0;exitDy=0;" edge="1" parent="1" source="_CVTH97Yd--CAdnfj3gm-48" target="_CVTH97Yd--CAdnfj3gm-47">
          <mxGeometry width="50" height="50" relative="1" as="geometry">
            <mxPoint x="459" y="250" as="sourcePoint" />
            <mxPoint x="369" y="110" as="targetPoint" />
          </mxGeometry>
        </mxCell>
        <mxCell id="_CVTH97Yd--CAdnfj3gm-50" value="" style="ellipse;whiteSpace=wrap;html=1;aspect=fixed;" vertex="1" parent="1">
          <mxGeometry x="359" y="140" width="10" height="10" as="geometry" />
        </mxCell>
        <mxCell id="_CVTH97Yd--CAdnfj3gm-51" value="" style="endArrow=none;html=1;rounded=0;exitX=0;exitY=0;exitDx=0;exitDy=0;entryX=1;entryY=1;entryDx=0;entryDy=0;" edge="1" parent="1" source="_CVTH97Yd--CAdnfj3gm-50" target="_CVTH97Yd--CAdnfj3gm-48">
          <mxGeometry width="50" height="50" relative="1" as="geometry">
            <mxPoint x="309" y="180" as="sourcePoint" />
            <mxPoint x="339" y="150" as="targetPoint" />
          </mxGeometry>
        </mxCell>
        <mxCell id="_CVTH97Yd--CAdnfj3gm-52" value="" style="ellipse;whiteSpace=wrap;html=1;aspect=fixed;" vertex="1" parent="1">
          <mxGeometry x="389" y="171" width="10" height="10" as="geometry" />
        </mxCell>
        <mxCell id="_CVTH97Yd--CAdnfj3gm-53" value="" style="endArrow=none;html=1;rounded=0;exitX=0;exitY=0;exitDx=0;exitDy=0;entryX=1;entryY=1;entryDx=0;entryDy=0;" edge="1" parent="1" source="_CVTH97Yd--CAdnfj3gm-52" target="_CVTH97Yd--CAdnfj3gm-50">
          <mxGeometry width="50" height="50" relative="1" as="geometry">
            <mxPoint x="370" y="151" as="sourcePoint" />
            <mxPoint x="348" y="129" as="targetPoint" />
          </mxGeometry>
        </mxCell>
        <mxCell id="_CVTH97Yd--CAdnfj3gm-54" value="" style="ellipse;whiteSpace=wrap;html=1;aspect=fixed;" vertex="1" parent="1">
          <mxGeometry x="500" y="80" width="10" height="10" as="geometry" />
        </mxCell>
        <mxCell id="_CVTH97Yd--CAdnfj3gm-55" value="" style="ellipse;whiteSpace=wrap;html=1;aspect=fixed;" vertex="1" parent="1">
          <mxGeometry x="470" y="110" width="10" height="10" as="geometry" />
        </mxCell>
        <mxCell id="_CVTH97Yd--CAdnfj3gm-56" value="" style="endArrow=none;html=1;rounded=0;entryX=0;entryY=1;entryDx=0;entryDy=0;exitX=1;exitY=0;exitDx=0;exitDy=0;" edge="1" parent="1" source="_CVTH97Yd--CAdnfj3gm-55" target="_CVTH97Yd--CAdnfj3gm-54">
          <mxGeometry width="50" height="50" relative="1" as="geometry">
            <mxPoint x="600" y="250" as="sourcePoint" />
            <mxPoint x="510" y="110" as="targetPoint" />
          </mxGeometry>
        </mxCell>
        <mxCell id="_CVTH97Yd--CAdnfj3gm-57" value="" style="ellipse;whiteSpace=wrap;html=1;aspect=fixed;" vertex="1" parent="1">
          <mxGeometry x="440" y="140" width="10" height="10" as="geometry" />
        </mxCell>
        <mxCell id="_CVTH97Yd--CAdnfj3gm-58" value="" style="endArrow=none;html=1;rounded=0;exitX=1;exitY=0;exitDx=0;exitDy=0;entryX=0;entryY=1;entryDx=0;entryDy=0;" edge="1" parent="1" source="_CVTH97Yd--CAdnfj3gm-57" target="_CVTH97Yd--CAdnfj3gm-55">
          <mxGeometry width="50" height="50" relative="1" as="geometry">
            <mxPoint x="450" y="180" as="sourcePoint" />
            <mxPoint x="480" y="150" as="targetPoint" />
          </mxGeometry>
        </mxCell>
        <mxCell id="_CVTH97Yd--CAdnfj3gm-59" value="" style="ellipse;whiteSpace=wrap;html=1;aspect=fixed;" vertex="1" parent="1">
          <mxGeometry x="530" y="110" width="10" height="10" as="geometry" />
        </mxCell>
        <mxCell id="_CVTH97Yd--CAdnfj3gm-60" value="" style="endArrow=none;html=1;rounded=0;exitX=0;exitY=0;exitDx=0;exitDy=0;entryX=1;entryY=1;entryDx=0;entryDy=0;" edge="1" parent="1" source="_CVTH97Yd--CAdnfj3gm-59" target="_CVTH97Yd--CAdnfj3gm-54">
          <mxGeometry width="50" height="50" relative="1" as="geometry">
            <mxPoint x="511" y="151" as="sourcePoint" />
            <mxPoint x="489" y="129" as="targetPoint" />
          </mxGeometry>
        </mxCell>
        <mxCell id="_CVTH97Yd--CAdnfj3gm-61" value="" style="ellipse;whiteSpace=wrap;html=1;aspect=fixed;" vertex="1" parent="1">
          <mxGeometry x="410" y="80" width="10" height="10" as="geometry" />
        </mxCell>
        <mxCell id="_CVTH97Yd--CAdnfj3gm-62" value="" style="ellipse;whiteSpace=wrap;html=1;aspect=fixed;" vertex="1" parent="1">
          <mxGeometry x="380" y="110" width="10" height="10" as="geometry" />
        </mxCell>
        <mxCell id="_CVTH97Yd--CAdnfj3gm-63" value="" style="endArrow=none;html=1;rounded=0;entryX=0;entryY=1;entryDx=0;entryDy=0;exitX=1;exitY=0;exitDx=0;exitDy=0;" edge="1" parent="1" source="_CVTH97Yd--CAdnfj3gm-62" target="_CVTH97Yd--CAdnfj3gm-61">
          <mxGeometry width="50" height="50" relative="1" as="geometry">
            <mxPoint x="510" y="250" as="sourcePoint" />
            <mxPoint x="420" y="110" as="targetPoint" />
          </mxGeometry>
        </mxCell>
        <mxCell id="_CVTH97Yd--CAdnfj3gm-64" value="" style="ellipse;whiteSpace=wrap;html=1;aspect=fixed;" vertex="1" parent="1">
          <mxGeometry x="410" y="140" width="10" height="10" as="geometry" />
        </mxCell>
        <mxCell id="_CVTH97Yd--CAdnfj3gm-65" value="" style="endArrow=none;html=1;rounded=0;exitX=0;exitY=0;exitDx=0;exitDy=0;entryX=1;entryY=1;entryDx=0;entryDy=0;" edge="1" parent="1" source="_CVTH97Yd--CAdnfj3gm-64" target="_CVTH97Yd--CAdnfj3gm-62">
          <mxGeometry width="50" height="50" relative="1" as="geometry">
            <mxPoint x="360" y="180" as="sourcePoint" />
            <mxPoint x="390" y="150" as="targetPoint" />
          </mxGeometry>
        </mxCell>
        <mxCell id="_CVTH97Yd--CAdnfj3gm-66" value="" style="ellipse;whiteSpace=wrap;html=1;aspect=fixed;" vertex="1" parent="1">
          <mxGeometry x="440" y="110" width="10" height="10" as="geometry" />
        </mxCell>
        <mxCell id="_CVTH97Yd--CAdnfj3gm-67" value="" style="endArrow=none;html=1;rounded=0;exitX=0;exitY=0;exitDx=0;exitDy=0;entryX=1;entryY=1;entryDx=0;entryDy=0;" edge="1" parent="1" source="_CVTH97Yd--CAdnfj3gm-66" target="_CVTH97Yd--CAdnfj3gm-61">
          <mxGeometry width="50" height="50" relative="1" as="geometry">
            <mxPoint x="421" y="151" as="sourcePoint" />
            <mxPoint x="399" y="129" as="targetPoint" />
          </mxGeometry>
        </mxCell>
        <mxCell id="_CVTH97Yd--CAdnfj3gm-68" value="" style="ellipse;whiteSpace=wrap;html=1;aspect=fixed;" vertex="1" parent="1">
          <mxGeometry x="192" y="200" width="10" height="10" as="geometry" />
        </mxCell>
        <mxCell id="_CVTH97Yd--CAdnfj3gm-69" value="" style="endArrow=none;html=1;rounded=0;entryX=0;entryY=1;entryDx=0;entryDy=0;exitX=1;exitY=0;exitDx=0;exitDy=0;" edge="1" parent="1" target="_CVTH97Yd--CAdnfj3gm-68" source="_CVTH97Yd--CAdnfj3gm-74">
          <mxGeometry width="50" height="50" relative="1" as="geometry">
            <mxPoint x="171" y="231" as="sourcePoint" />
            <mxPoint x="202" y="230" as="targetPoint" />
          </mxGeometry>
        </mxCell>
        <mxCell id="_CVTH97Yd--CAdnfj3gm-70" value="" style="ellipse;whiteSpace=wrap;html=1;aspect=fixed;" vertex="1" parent="1">
          <mxGeometry x="192" y="260" width="10" height="10" as="geometry" />
        </mxCell>
        <mxCell id="_CVTH97Yd--CAdnfj3gm-71" value="" style="endArrow=none;html=1;rounded=0;exitX=1;exitY=0;exitDx=0;exitDy=0;entryX=0;entryY=1;entryDx=0;entryDy=0;" edge="1" parent="1" source="_CVTH97Yd--CAdnfj3gm-70" target="_CVTH97Yd--CAdnfj3gm-72">
          <mxGeometry width="50" height="50" relative="1" as="geometry">
            <mxPoint x="142" y="300" as="sourcePoint" />
            <mxPoint x="171" y="239" as="targetPoint" />
          </mxGeometry>
        </mxCell>
        <mxCell id="_CVTH97Yd--CAdnfj3gm-72" value="" style="ellipse;whiteSpace=wrap;html=1;aspect=fixed;" vertex="1" parent="1">
          <mxGeometry x="222" y="230" width="10" height="10" as="geometry" />
        </mxCell>
        <mxCell id="_CVTH97Yd--CAdnfj3gm-73" value="" style="endArrow=none;html=1;rounded=0;exitX=0;exitY=0;exitDx=0;exitDy=0;entryX=1;entryY=1;entryDx=0;entryDy=0;" edge="1" parent="1" source="_CVTH97Yd--CAdnfj3gm-72" target="_CVTH97Yd--CAdnfj3gm-68">
          <mxGeometry width="50" height="50" relative="1" as="geometry">
            <mxPoint x="203" y="271" as="sourcePoint" />
            <mxPoint x="181" y="249" as="targetPoint" />
          </mxGeometry>
        </mxCell>
        <mxCell id="_CVTH97Yd--CAdnfj3gm-74" value="" style="ellipse;whiteSpace=wrap;html=1;aspect=fixed;" vertex="1" parent="1">
          <mxGeometry x="161" y="230" width="10" height="10" as="geometry" />
        </mxCell>
        <mxCell id="_CVTH97Yd--CAdnfj3gm-75" value="" style="ellipse;whiteSpace=wrap;html=1;aspect=fixed;" vertex="1" parent="1">
          <mxGeometry x="101" y="200" width="10" height="10" as="geometry" />
        </mxCell>
        <mxCell id="_CVTH97Yd--CAdnfj3gm-76" value="" style="endArrow=none;html=1;rounded=0;entryX=0;entryY=1;entryDx=0;entryDy=0;exitX=1;exitY=0;exitDx=0;exitDy=0;" edge="1" parent="1" source="_CVTH97Yd--CAdnfj3gm-81" target="_CVTH97Yd--CAdnfj3gm-75">
          <mxGeometry width="50" height="50" relative="1" as="geometry">
            <mxPoint x="80" y="231" as="sourcePoint" />
            <mxPoint x="111" y="230" as="targetPoint" />
          </mxGeometry>
        </mxCell>
        <mxCell id="_CVTH97Yd--CAdnfj3gm-77" value="" style="ellipse;whiteSpace=wrap;html=1;aspect=fixed;" vertex="1" parent="1">
          <mxGeometry x="161" y="260" width="10" height="10" as="geometry" />
        </mxCell>
        <mxCell id="_CVTH97Yd--CAdnfj3gm-78" value="" style="endArrow=none;html=1;rounded=0;exitX=0;exitY=0;exitDx=0;exitDy=0;entryX=1;entryY=1;entryDx=0;entryDy=0;" edge="1" parent="1" source="_CVTH97Yd--CAdnfj3gm-77" target="_CVTH97Yd--CAdnfj3gm-79">
          <mxGeometry width="50" height="50" relative="1" as="geometry">
            <mxPoint x="51" y="300" as="sourcePoint" />
            <mxPoint x="80" y="239" as="targetPoint" />
          </mxGeometry>
        </mxCell>
        <mxCell id="_CVTH97Yd--CAdnfj3gm-79" value="" style="ellipse;whiteSpace=wrap;html=1;aspect=fixed;" vertex="1" parent="1">
          <mxGeometry x="131" y="230" width="10" height="10" as="geometry" />
        </mxCell>
        <mxCell id="_CVTH97Yd--CAdnfj3gm-80" value="" style="endArrow=none;html=1;rounded=0;exitX=0;exitY=0;exitDx=0;exitDy=0;entryX=1;entryY=1;entryDx=0;entryDy=0;" edge="1" parent="1" source="_CVTH97Yd--CAdnfj3gm-79" target="_CVTH97Yd--CAdnfj3gm-75">
          <mxGeometry width="50" height="50" relative="1" as="geometry">
            <mxPoint x="112" y="271" as="sourcePoint" />
            <mxPoint x="90" y="249" as="targetPoint" />
          </mxGeometry>
        </mxCell>
        <mxCell id="_CVTH97Yd--CAdnfj3gm-81" value="" style="ellipse;whiteSpace=wrap;html=1;aspect=fixed;" vertex="1" parent="1">
          <mxGeometry x="70" y="230" width="10" height="10" as="geometry" />
        </mxCell>
        <mxCell id="_CVTH97Yd--CAdnfj3gm-83" value="" style="ellipse;whiteSpace=wrap;html=1;aspect=fixed;" vertex="1" parent="1">
          <mxGeometry x="244" y="200" width="10" height="10" as="geometry" />
        </mxCell>
        <mxCell id="_CVTH97Yd--CAdnfj3gm-84" value="" style="endArrow=none;html=1;rounded=0;entryX=0;entryY=1;entryDx=0;entryDy=0;exitX=1;exitY=0;exitDx=0;exitDy=0;" edge="1" parent="1" source="_CVTH97Yd--CAdnfj3gm-89" target="_CVTH97Yd--CAdnfj3gm-85">
          <mxGeometry width="50" height="50" relative="1" as="geometry">
            <mxPoint x="223" y="231" as="sourcePoint" />
            <mxPoint x="254" y="230" as="targetPoint" />
          </mxGeometry>
        </mxCell>
        <mxCell id="_CVTH97Yd--CAdnfj3gm-85" value="" style="ellipse;whiteSpace=wrap;html=1;aspect=fixed;rotation=-15;" vertex="1" parent="1">
          <mxGeometry x="244" y="260" width="10" height="10" as="geometry" />
        </mxCell>
        <mxCell id="_CVTH97Yd--CAdnfj3gm-86" value="" style="endArrow=none;html=1;rounded=0;exitX=1;exitY=0;exitDx=0;exitDy=0;entryX=0;entryY=1;entryDx=0;entryDy=0;" edge="1" parent="1" source="_CVTH97Yd--CAdnfj3gm-85" target="_CVTH97Yd--CAdnfj3gm-87">
          <mxGeometry width="50" height="50" relative="1" as="geometry">
            <mxPoint x="194" y="300" as="sourcePoint" />
            <mxPoint x="223" y="239" as="targetPoint" />
          </mxGeometry>
        </mxCell>
        <mxCell id="_CVTH97Yd--CAdnfj3gm-87" value="" style="ellipse;whiteSpace=wrap;html=1;aspect=fixed;" vertex="1" parent="1">
          <mxGeometry x="274" y="230" width="10" height="10" as="geometry" />
        </mxCell>
        <mxCell id="_CVTH97Yd--CAdnfj3gm-88" value="" style="endArrow=none;html=1;rounded=0;exitX=0;exitY=0;exitDx=0;exitDy=0;entryX=1;entryY=1;entryDx=0;entryDy=0;" edge="1" parent="1" source="_CVTH97Yd--CAdnfj3gm-87" target="_CVTH97Yd--CAdnfj3gm-83">
          <mxGeometry width="50" height="50" relative="1" as="geometry">
            <mxPoint x="255" y="271" as="sourcePoint" />
            <mxPoint x="233" y="249" as="targetPoint" />
          </mxGeometry>
        </mxCell>
        <mxCell id="_CVTH97Yd--CAdnfj3gm-89" value="" style="ellipse;whiteSpace=wrap;html=1;aspect=fixed;" vertex="1" parent="1">
          <mxGeometry x="213" y="290" width="10" height="10" as="geometry" />
        </mxCell>
        <mxCell id="_CVTH97Yd--CAdnfj3gm-98" value="" style="ellipse;whiteSpace=wrap;html=1;aspect=fixed;" vertex="1" parent="1">
          <mxGeometry x="292" y="200" width="10" height="10" as="geometry" />
        </mxCell>
        <mxCell id="_CVTH97Yd--CAdnfj3gm-99" value="" style="endArrow=none;html=1;rounded=0;entryX=1;entryY=1;entryDx=0;entryDy=0;exitX=0;exitY=0;exitDx=0;exitDy=0;" edge="1" source="_CVTH97Yd--CAdnfj3gm-104" target="_CVTH97Yd--CAdnfj3gm-100" parent="1">
          <mxGeometry width="50" height="50" relative="1" as="geometry">
            <mxPoint x="271" y="231" as="sourcePoint" />
            <mxPoint x="302" y="230" as="targetPoint" />
          </mxGeometry>
        </mxCell>
        <mxCell id="_CVTH97Yd--CAdnfj3gm-100" value="" style="ellipse;whiteSpace=wrap;html=1;aspect=fixed;rotation=-15;" vertex="1" parent="1">
          <mxGeometry x="292" y="260" width="10" height="10" as="geometry" />
        </mxCell>
        <mxCell id="_CVTH97Yd--CAdnfj3gm-101" value="" style="endArrow=none;html=1;rounded=0;exitX=1;exitY=0;exitDx=0;exitDy=0;entryX=0;entryY=1;entryDx=0;entryDy=0;" edge="1" source="_CVTH97Yd--CAdnfj3gm-100" target="_CVTH97Yd--CAdnfj3gm-102" parent="1">
          <mxGeometry width="50" height="50" relative="1" as="geometry">
            <mxPoint x="242" y="300" as="sourcePoint" />
            <mxPoint x="271" y="239" as="targetPoint" />
          </mxGeometry>
        </mxCell>
        <mxCell id="_CVTH97Yd--CAdnfj3gm-102" value="" style="ellipse;whiteSpace=wrap;html=1;aspect=fixed;" vertex="1" parent="1">
          <mxGeometry x="322" y="230" width="10" height="10" as="geometry" />
        </mxCell>
        <mxCell id="_CVTH97Yd--CAdnfj3gm-103" value="" style="endArrow=none;html=1;rounded=0;exitX=0;exitY=0;exitDx=0;exitDy=0;entryX=1;entryY=1;entryDx=0;entryDy=0;" edge="1" source="_CVTH97Yd--CAdnfj3gm-102" target="_CVTH97Yd--CAdnfj3gm-98" parent="1">
          <mxGeometry width="50" height="50" relative="1" as="geometry">
            <mxPoint x="303" y="271" as="sourcePoint" />
            <mxPoint x="281" y="249" as="targetPoint" />
          </mxGeometry>
        </mxCell>
        <mxCell id="_CVTH97Yd--CAdnfj3gm-104" value="" style="ellipse;whiteSpace=wrap;html=1;aspect=fixed;" vertex="1" parent="1">
          <mxGeometry x="322" y="290" width="10" height="10" as="geometry" />
        </mxCell>
        <mxCell id="_CVTH97Yd--CAdnfj3gm-105" value="" style="ellipse;whiteSpace=wrap;html=1;aspect=fixed;" vertex="1" parent="1">
          <mxGeometry x="338" y="200" width="10" height="10" as="geometry" />
        </mxCell>
        <mxCell id="_CVTH97Yd--CAdnfj3gm-106" value="" style="endArrow=none;html=1;rounded=0;entryX=1;entryY=1;entryDx=0;entryDy=0;exitX=0;exitY=0;exitDx=0;exitDy=0;" edge="1" source="_CVTH97Yd--CAdnfj3gm-111" target="_CVTH97Yd--CAdnfj3gm-109" parent="1">
          <mxGeometry width="50" height="50" relative="1" as="geometry">
            <mxPoint x="317" y="231" as="sourcePoint" />
            <mxPoint x="348" y="230" as="targetPoint" />
          </mxGeometry>
        </mxCell>
        <mxCell id="_CVTH97Yd--CAdnfj3gm-107" value="" style="ellipse;whiteSpace=wrap;html=1;aspect=fixed;rotation=-15;" vertex="1" parent="1">
          <mxGeometry x="338" y="260" width="10" height="10" as="geometry" />
        </mxCell>
        <mxCell id="_CVTH97Yd--CAdnfj3gm-108" value="" style="endArrow=none;html=1;rounded=0;exitX=1;exitY=0;exitDx=0;exitDy=0;entryX=0;entryY=1;entryDx=0;entryDy=0;" edge="1" source="_CVTH97Yd--CAdnfj3gm-107" target="_CVTH97Yd--CAdnfj3gm-109" parent="1">
          <mxGeometry width="50" height="50" relative="1" as="geometry">
            <mxPoint x="288" y="300" as="sourcePoint" />
            <mxPoint x="317" y="239" as="targetPoint" />
          </mxGeometry>
        </mxCell>
        <mxCell id="_CVTH97Yd--CAdnfj3gm-109" value="" style="ellipse;whiteSpace=wrap;html=1;aspect=fixed;" vertex="1" parent="1">
          <mxGeometry x="368" y="230" width="10" height="10" as="geometry" />
        </mxCell>
        <mxCell id="_CVTH97Yd--CAdnfj3gm-110" value="" style="endArrow=none;html=1;rounded=0;exitX=0;exitY=0;exitDx=0;exitDy=0;entryX=1;entryY=1;entryDx=0;entryDy=0;" edge="1" source="_CVTH97Yd--CAdnfj3gm-109" target="_CVTH97Yd--CAdnfj3gm-105" parent="1">
          <mxGeometry width="50" height="50" relative="1" as="geometry">
            <mxPoint x="349" y="271" as="sourcePoint" />
            <mxPoint x="327" y="249" as="targetPoint" />
          </mxGeometry>
        </mxCell>
        <mxCell id="_CVTH97Yd--CAdnfj3gm-111" value="" style="ellipse;whiteSpace=wrap;html=1;aspect=fixed;" vertex="1" parent="1">
          <mxGeometry x="398" y="260" width="10" height="10" as="geometry" />
        </mxCell>
        <mxCell id="_CVTH97Yd--CAdnfj3gm-114" value="" style="ellipse;whiteSpace=wrap;html=1;aspect=fixed;" vertex="1" parent="1">
          <mxGeometry x="387" y="200" width="10" height="10" as="geometry" />
        </mxCell>
        <mxCell id="_CVTH97Yd--CAdnfj3gm-115" value="" style="endArrow=none;html=1;rounded=0;entryX=1;entryY=1;entryDx=0;entryDy=0;exitX=0;exitY=0;exitDx=0;exitDy=0;" edge="1" source="_CVTH97Yd--CAdnfj3gm-120" target="_CVTH97Yd--CAdnfj3gm-118" parent="1">
          <mxGeometry width="50" height="50" relative="1" as="geometry">
            <mxPoint x="366" y="231" as="sourcePoint" />
            <mxPoint x="397" y="230" as="targetPoint" />
          </mxGeometry>
        </mxCell>
        <mxCell id="_CVTH97Yd--CAdnfj3gm-116" value="" style="ellipse;whiteSpace=wrap;html=1;aspect=fixed;rotation=-15;" vertex="1" parent="1">
          <mxGeometry x="418" y="290" width="10" height="10" as="geometry" />
        </mxCell>
        <mxCell id="_CVTH97Yd--CAdnfj3gm-117" value="" style="endArrow=none;html=1;rounded=0;exitX=1;exitY=0;exitDx=0;exitDy=0;entryX=0;entryY=1;entryDx=0;entryDy=0;" edge="1" source="_CVTH97Yd--CAdnfj3gm-116" target="_CVTH97Yd--CAdnfj3gm-120" parent="1">
          <mxGeometry width="50" height="50" relative="1" as="geometry">
            <mxPoint x="337" y="300" as="sourcePoint" />
            <mxPoint x="366" y="239" as="targetPoint" />
          </mxGeometry>
        </mxCell>
        <mxCell id="_CVTH97Yd--CAdnfj3gm-118" value="" style="ellipse;whiteSpace=wrap;html=1;aspect=fixed;" vertex="1" parent="1">
          <mxGeometry x="417" y="230" width="10" height="10" as="geometry" />
        </mxCell>
        <mxCell id="_CVTH97Yd--CAdnfj3gm-119" value="" style="endArrow=none;html=1;rounded=0;exitX=0;exitY=0;exitDx=0;exitDy=0;entryX=1;entryY=1;entryDx=0;entryDy=0;" edge="1" source="_CVTH97Yd--CAdnfj3gm-118" target="_CVTH97Yd--CAdnfj3gm-114" parent="1">
          <mxGeometry width="50" height="50" relative="1" as="geometry">
            <mxPoint x="398" y="271" as="sourcePoint" />
            <mxPoint x="376" y="249" as="targetPoint" />
          </mxGeometry>
        </mxCell>
        <mxCell id="_CVTH97Yd--CAdnfj3gm-120" value="" style="ellipse;whiteSpace=wrap;html=1;aspect=fixed;" vertex="1" parent="1">
          <mxGeometry x="447" y="260" width="10" height="10" as="geometry" />
        </mxCell>
        <mxCell id="_CVTH97Yd--CAdnfj3gm-128" value="" style="ellipse;whiteSpace=wrap;html=1;aspect=fixed;" vertex="1" parent="1">
          <mxGeometry x="436" y="200" width="10" height="10" as="geometry" />
        </mxCell>
        <mxCell id="_CVTH97Yd--CAdnfj3gm-129" value="" style="endArrow=none;html=1;rounded=0;entryX=1;entryY=1;entryDx=0;entryDy=0;exitX=0;exitY=0;exitDx=0;exitDy=0;" edge="1" parent="1" source="_CVTH97Yd--CAdnfj3gm-134" target="_CVTH97Yd--CAdnfj3gm-132">
          <mxGeometry width="50" height="50" relative="1" as="geometry">
            <mxPoint x="497.46446609406735" y="261.46446609406735" as="sourcePoint" />
            <mxPoint x="446" y="230" as="targetPoint" />
          </mxGeometry>
        </mxCell>
        <mxCell id="_CVTH97Yd--CAdnfj3gm-130" value="" style="ellipse;whiteSpace=wrap;html=1;aspect=fixed;rotation=0;" vertex="1" parent="1">
          <mxGeometry x="526" y="290" width="10" height="10" as="geometry" />
        </mxCell>
        <mxCell id="_CVTH97Yd--CAdnfj3gm-131" value="" style="endArrow=none;html=1;rounded=0;exitX=0;exitY=0;exitDx=0;exitDy=0;entryX=1;entryY=1;entryDx=0;entryDy=0;" edge="1" parent="1" source="_CVTH97Yd--CAdnfj3gm-130" target="_CVTH97Yd--CAdnfj3gm-134">
          <mxGeometry width="50" height="50" relative="1" as="geometry">
            <mxPoint x="386" y="300" as="sourcePoint" />
            <mxPoint x="504.53553390593265" y="268.53553390593265" as="targetPoint" />
          </mxGeometry>
        </mxCell>
        <mxCell id="_CVTH97Yd--CAdnfj3gm-132" value="" style="ellipse;whiteSpace=wrap;html=1;aspect=fixed;" vertex="1" parent="1">
          <mxGeometry x="466" y="230" width="10" height="10" as="geometry" />
        </mxCell>
        <mxCell id="_CVTH97Yd--CAdnfj3gm-133" value="" style="endArrow=none;html=1;rounded=0;exitX=0;exitY=0;exitDx=0;exitDy=0;entryX=1;entryY=1;entryDx=0;entryDy=0;" edge="1" parent="1" source="_CVTH97Yd--CAdnfj3gm-132" target="_CVTH97Yd--CAdnfj3gm-128">
          <mxGeometry width="50" height="50" relative="1" as="geometry">
            <mxPoint x="447" y="271" as="sourcePoint" />
            <mxPoint x="425" y="249" as="targetPoint" />
          </mxGeometry>
        </mxCell>
        <mxCell id="_CVTH97Yd--CAdnfj3gm-134" value="" style="ellipse;whiteSpace=wrap;html=1;aspect=fixed;" vertex="1" parent="1">
          <mxGeometry x="496" y="260" width="10" height="10" as="geometry" />
        </mxCell>
      </root>
    </mxGraphModel>
  </diagram>
  <diagram id="_Nq2Z7XNsA7HpmUyvQVJ" name="완전 이진 트리">
    <mxGraphModel dx="405" dy="247" grid="1" gridSize="10" guides="1" tooltips="1" connect="1" arrows="1" fold="1" page="1" pageScale="1" pageWidth="1169" pageHeight="827" math="0" shadow="0">
      <root>
        <mxCell id="0" />
        <mxCell id="1" parent="0" />
        <mxCell id="f1AhCdeuywfrIruJSH4g-1" value="" style="ellipse;whiteSpace=wrap;html=1;aspect=fixed;" vertex="1" parent="1">
          <mxGeometry x="480" y="80" width="10" height="10" as="geometry" />
        </mxCell>
        <mxCell id="f1AhCdeuywfrIruJSH4g-2" value="" style="ellipse;whiteSpace=wrap;html=1;aspect=fixed;" vertex="1" parent="1">
          <mxGeometry x="450" y="110" width="10" height="10" as="geometry" />
        </mxCell>
        <mxCell id="f1AhCdeuywfrIruJSH4g-3" value="" style="endArrow=none;html=1;rounded=0;entryX=0;entryY=1;entryDx=0;entryDy=0;exitX=1;exitY=0;exitDx=0;exitDy=0;" edge="1" parent="1" source="f1AhCdeuywfrIruJSH4g-2" target="f1AhCdeuywfrIruJSH4g-1">
          <mxGeometry width="50" height="50" relative="1" as="geometry">
            <mxPoint x="580" y="250" as="sourcePoint" />
            <mxPoint x="490" y="110" as="targetPoint" />
          </mxGeometry>
        </mxCell>
        <mxCell id="f1AhCdeuywfrIruJSH4g-4" value="" style="ellipse;whiteSpace=wrap;html=1;aspect=fixed;" vertex="1" parent="1">
          <mxGeometry x="510" y="110" width="10" height="10" as="geometry" />
        </mxCell>
        <mxCell id="f1AhCdeuywfrIruJSH4g-5" value="" style="endArrow=none;html=1;rounded=0;exitX=0;exitY=0;exitDx=0;exitDy=0;entryX=1;entryY=1;entryDx=0;entryDy=0;" edge="1" parent="1" source="f1AhCdeuywfrIruJSH4g-4" target="f1AhCdeuywfrIruJSH4g-1">
          <mxGeometry width="50" height="50" relative="1" as="geometry">
            <mxPoint x="430" y="180" as="sourcePoint" />
            <mxPoint x="460" y="150" as="targetPoint" />
          </mxGeometry>
        </mxCell>
        <mxCell id="Sr-PRYDG-KULMoOuulKo-1" value="" style="ellipse;whiteSpace=wrap;html=1;aspect=fixed;" vertex="1" parent="1">
          <mxGeometry x="580" y="80" width="10" height="10" as="geometry" />
        </mxCell>
        <mxCell id="Sr-PRYDG-KULMoOuulKo-2" value="" style="ellipse;whiteSpace=wrap;html=1;aspect=fixed;" vertex="1" parent="1">
          <mxGeometry x="550" y="110" width="10" height="10" as="geometry" />
        </mxCell>
        <mxCell id="Sr-PRYDG-KULMoOuulKo-3" value="" style="endArrow=none;html=1;rounded=0;entryX=0;entryY=1;entryDx=0;entryDy=0;exitX=1;exitY=0;exitDx=0;exitDy=0;" edge="1" parent="1" source="Sr-PRYDG-KULMoOuulKo-2" target="Sr-PRYDG-KULMoOuulKo-1">
          <mxGeometry width="50" height="50" relative="1" as="geometry">
            <mxPoint x="670" y="250" as="sourcePoint" />
            <mxPoint x="580" y="110" as="targetPoint" />
          </mxGeometry>
        </mxCell>
        <mxCell id="Sr-PRYDG-KULMoOuulKo-4" value="" style="ellipse;whiteSpace=wrap;html=1;aspect=fixed;" vertex="1" parent="1">
          <mxGeometry x="610" y="110" width="10" height="10" as="geometry" />
        </mxCell>
        <mxCell id="Sr-PRYDG-KULMoOuulKo-5" value="" style="endArrow=none;html=1;rounded=0;exitX=0;exitY=0;exitDx=0;exitDy=0;entryX=1;entryY=1;entryDx=0;entryDy=0;" edge="1" parent="1" source="Sr-PRYDG-KULMoOuulKo-4" target="Sr-PRYDG-KULMoOuulKo-1">
          <mxGeometry width="50" height="50" relative="1" as="geometry">
            <mxPoint x="520" y="180" as="sourcePoint" />
            <mxPoint x="550" y="150" as="targetPoint" />
          </mxGeometry>
        </mxCell>
        <mxCell id="Sr-PRYDG-KULMoOuulKo-6" value="" style="ellipse;whiteSpace=wrap;html=1;aspect=fixed;" vertex="1" parent="1">
          <mxGeometry x="530" y="150" width="10" height="10" as="geometry" />
        </mxCell>
        <mxCell id="Sr-PRYDG-KULMoOuulKo-7" value="" style="ellipse;whiteSpace=wrap;html=1;aspect=fixed;" vertex="1" parent="1">
          <mxGeometry x="570" y="150" width="10" height="10" as="geometry" />
        </mxCell>
        <mxCell id="Sr-PRYDG-KULMoOuulKo-8" value="" style="endArrow=none;html=1;rounded=0;entryX=0;entryY=1;entryDx=0;entryDy=0;exitX=1;exitY=0;exitDx=0;exitDy=0;" edge="1" parent="1" source="Sr-PRYDG-KULMoOuulKo-6" target="Sr-PRYDG-KULMoOuulKo-2">
          <mxGeometry width="50" height="50" relative="1" as="geometry">
            <mxPoint x="459" y="121" as="sourcePoint" />
            <mxPoint x="481" y="99" as="targetPoint" />
          </mxGeometry>
        </mxCell>
        <mxCell id="Sr-PRYDG-KULMoOuulKo-9" value="" style="endArrow=none;html=1;rounded=0;entryX=1;entryY=1;entryDx=0;entryDy=0;exitX=0;exitY=0;exitDx=0;exitDy=0;" edge="1" parent="1" source="Sr-PRYDG-KULMoOuulKo-7" target="Sr-PRYDG-KULMoOuulKo-2">
          <mxGeometry width="50" height="50" relative="1" as="geometry">
            <mxPoint x="539" y="161" as="sourcePoint" />
            <mxPoint x="561" y="129" as="targetPoint" />
          </mxGeometry>
        </mxCell>
        <mxCell id="Sr-PRYDG-KULMoOuulKo-10" value="" style="ellipse;whiteSpace=wrap;html=1;aspect=fixed;" vertex="1" parent="1">
          <mxGeometry x="590" y="150" width="10" height="10" as="geometry" />
        </mxCell>
        <mxCell id="Sr-PRYDG-KULMoOuulKo-11" value="" style="ellipse;whiteSpace=wrap;html=1;aspect=fixed;" vertex="1" parent="1">
          <mxGeometry x="630" y="150" width="10" height="10" as="geometry" />
        </mxCell>
        <mxCell id="Sr-PRYDG-KULMoOuulKo-12" value="" style="endArrow=none;html=1;rounded=0;entryX=1;entryY=1;entryDx=0;entryDy=0;exitX=0;exitY=0;exitDx=0;exitDy=0;" edge="1" parent="1" source="Sr-PRYDG-KULMoOuulKo-11" target="Sr-PRYDG-KULMoOuulKo-4">
          <mxGeometry width="50" height="50" relative="1" as="geometry">
            <mxPoint x="571" y="161" as="sourcePoint" />
            <mxPoint x="549" y="129" as="targetPoint" />
          </mxGeometry>
        </mxCell>
        <mxCell id="Sr-PRYDG-KULMoOuulKo-13" value="" style="endArrow=none;html=1;rounded=0;entryX=0;entryY=1;entryDx=0;entryDy=0;exitX=1;exitY=0;exitDx=0;exitDy=0;" edge="1" parent="1" source="Sr-PRYDG-KULMoOuulKo-10" target="Sr-PRYDG-KULMoOuulKo-4">
          <mxGeometry width="50" height="50" relative="1" as="geometry">
            <mxPoint x="519" y="161" as="sourcePoint" />
            <mxPoint x="541" y="129" as="targetPoint" />
          </mxGeometry>
        </mxCell>
        <mxCell id="Sr-PRYDG-KULMoOuulKo-28" value="" style="ellipse;whiteSpace=wrap;html=1;aspect=fixed;" vertex="1" parent="1">
          <mxGeometry x="700" y="110" width="10" height="10" as="geometry" />
        </mxCell>
        <mxCell id="Sr-PRYDG-KULMoOuulKo-29" value="" style="ellipse;whiteSpace=wrap;html=1;aspect=fixed;" vertex="1" parent="1">
          <mxGeometry x="670" y="140" width="10" height="10" as="geometry" />
        </mxCell>
        <mxCell id="Sr-PRYDG-KULMoOuulKo-30" value="" style="endArrow=none;html=1;rounded=0;entryX=0;entryY=1;entryDx=0;entryDy=0;exitX=1;exitY=0;exitDx=0;exitDy=0;" edge="1" parent="1" source="Sr-PRYDG-KULMoOuulKo-29" target="Sr-PRYDG-KULMoOuulKo-28">
          <mxGeometry width="50" height="50" relative="1" as="geometry">
            <mxPoint x="800" y="280" as="sourcePoint" />
            <mxPoint x="710" y="140" as="targetPoint" />
          </mxGeometry>
        </mxCell>
        <mxCell id="Sr-PRYDG-KULMoOuulKo-31" value="" style="ellipse;whiteSpace=wrap;html=1;aspect=fixed;" vertex="1" parent="1">
          <mxGeometry x="730" y="140" width="10" height="10" as="geometry" />
        </mxCell>
        <mxCell id="Sr-PRYDG-KULMoOuulKo-32" value="" style="endArrow=none;html=1;rounded=0;exitX=0;exitY=0;exitDx=0;exitDy=0;entryX=1;entryY=1;entryDx=0;entryDy=0;" edge="1" parent="1" source="Sr-PRYDG-KULMoOuulKo-31" target="Sr-PRYDG-KULMoOuulKo-28">
          <mxGeometry width="50" height="50" relative="1" as="geometry">
            <mxPoint x="650" y="210" as="sourcePoint" />
            <mxPoint x="680" y="180" as="targetPoint" />
          </mxGeometry>
        </mxCell>
        <mxCell id="Sr-PRYDG-KULMoOuulKo-33" value="" style="ellipse;whiteSpace=wrap;html=1;aspect=fixed;" vertex="1" parent="1">
          <mxGeometry x="650" y="180" width="10" height="10" as="geometry" />
        </mxCell>
        <mxCell id="Sr-PRYDG-KULMoOuulKo-34" value="" style="ellipse;whiteSpace=wrap;html=1;aspect=fixed;" vertex="1" parent="1">
          <mxGeometry x="690" y="180" width="10" height="10" as="geometry" />
        </mxCell>
        <mxCell id="Sr-PRYDG-KULMoOuulKo-35" value="" style="endArrow=none;html=1;rounded=0;entryX=0;entryY=1;entryDx=0;entryDy=0;exitX=1;exitY=0;exitDx=0;exitDy=0;" edge="1" parent="1" source="Sr-PRYDG-KULMoOuulKo-33" target="Sr-PRYDG-KULMoOuulKo-29">
          <mxGeometry width="50" height="50" relative="1" as="geometry">
            <mxPoint x="579" y="151" as="sourcePoint" />
            <mxPoint x="601" y="129" as="targetPoint" />
          </mxGeometry>
        </mxCell>
        <mxCell id="Sr-PRYDG-KULMoOuulKo-36" value="" style="endArrow=none;html=1;rounded=0;entryX=1;entryY=1;entryDx=0;entryDy=0;exitX=0;exitY=0;exitDx=0;exitDy=0;" edge="1" parent="1" source="Sr-PRYDG-KULMoOuulKo-34" target="Sr-PRYDG-KULMoOuulKo-29">
          <mxGeometry width="50" height="50" relative="1" as="geometry">
            <mxPoint x="659" y="191" as="sourcePoint" />
            <mxPoint x="681" y="159" as="targetPoint" />
          </mxGeometry>
        </mxCell>
        <mxCell id="Sr-PRYDG-KULMoOuulKo-37" value="" style="ellipse;whiteSpace=wrap;html=1;aspect=fixed;" vertex="1" parent="1">
          <mxGeometry x="710" y="180" width="10" height="10" as="geometry" />
        </mxCell>
        <mxCell id="Sr-PRYDG-KULMoOuulKo-38" value="" style="ellipse;whiteSpace=wrap;html=1;aspect=fixed;" vertex="1" parent="1">
          <mxGeometry x="750" y="180" width="10" height="10" as="geometry" />
        </mxCell>
        <mxCell id="Sr-PRYDG-KULMoOuulKo-39" value="" style="endArrow=none;html=1;rounded=0;entryX=1;entryY=1;entryDx=0;entryDy=0;exitX=0;exitY=0;exitDx=0;exitDy=0;" edge="1" parent="1" source="Sr-PRYDG-KULMoOuulKo-38" target="Sr-PRYDG-KULMoOuulKo-31">
          <mxGeometry width="50" height="50" relative="1" as="geometry">
            <mxPoint x="691" y="191" as="sourcePoint" />
            <mxPoint x="669" y="159" as="targetPoint" />
          </mxGeometry>
        </mxCell>
        <mxCell id="Sr-PRYDG-KULMoOuulKo-40" value="" style="endArrow=none;html=1;rounded=0;entryX=0;entryY=1;entryDx=0;entryDy=0;exitX=1;exitY=0;exitDx=0;exitDy=0;" edge="1" parent="1" source="Sr-PRYDG-KULMoOuulKo-37" target="Sr-PRYDG-KULMoOuulKo-31">
          <mxGeometry width="50" height="50" relative="1" as="geometry">
            <mxPoint x="639" y="191" as="sourcePoint" />
            <mxPoint x="661" y="159" as="targetPoint" />
          </mxGeometry>
        </mxCell>
        <mxCell id="Sr-PRYDG-KULMoOuulKo-41" value="" style="ellipse;whiteSpace=wrap;html=1;aspect=fixed;" vertex="1" parent="1">
          <mxGeometry x="820" y="110" width="10" height="10" as="geometry" />
        </mxCell>
        <mxCell id="Sr-PRYDG-KULMoOuulKo-42" value="" style="ellipse;whiteSpace=wrap;html=1;aspect=fixed;" vertex="1" parent="1">
          <mxGeometry x="790" y="140" width="10" height="10" as="geometry" />
        </mxCell>
        <mxCell id="Sr-PRYDG-KULMoOuulKo-43" value="" style="endArrow=none;html=1;rounded=0;entryX=0;entryY=1;entryDx=0;entryDy=0;exitX=1;exitY=0;exitDx=0;exitDy=0;" edge="1" parent="1" source="Sr-PRYDG-KULMoOuulKo-42" target="Sr-PRYDG-KULMoOuulKo-41">
          <mxGeometry width="50" height="50" relative="1" as="geometry">
            <mxPoint x="920" y="280" as="sourcePoint" />
            <mxPoint x="830" y="140" as="targetPoint" />
          </mxGeometry>
        </mxCell>
        <mxCell id="Sr-PRYDG-KULMoOuulKo-44" value="" style="ellipse;whiteSpace=wrap;html=1;aspect=fixed;" vertex="1" parent="1">
          <mxGeometry x="850" y="140" width="10" height="10" as="geometry" />
        </mxCell>
        <mxCell id="Sr-PRYDG-KULMoOuulKo-45" value="" style="endArrow=none;html=1;rounded=0;exitX=0;exitY=0;exitDx=0;exitDy=0;entryX=1;entryY=1;entryDx=0;entryDy=0;" edge="1" parent="1" source="Sr-PRYDG-KULMoOuulKo-44" target="Sr-PRYDG-KULMoOuulKo-41">
          <mxGeometry width="50" height="50" relative="1" as="geometry">
            <mxPoint x="770" y="210" as="sourcePoint" />
            <mxPoint x="800" y="180" as="targetPoint" />
          </mxGeometry>
        </mxCell>
        <mxCell id="Sr-PRYDG-KULMoOuulKo-46" value="" style="ellipse;whiteSpace=wrap;html=1;aspect=fixed;" vertex="1" parent="1">
          <mxGeometry x="770" y="180" width="10" height="10" as="geometry" />
        </mxCell>
        <mxCell id="Sr-PRYDG-KULMoOuulKo-47" value="" style="ellipse;whiteSpace=wrap;html=1;aspect=fixed;" vertex="1" parent="1">
          <mxGeometry x="810" y="180" width="10" height="10" as="geometry" />
        </mxCell>
        <mxCell id="Sr-PRYDG-KULMoOuulKo-48" value="" style="endArrow=none;html=1;rounded=0;entryX=0;entryY=1;entryDx=0;entryDy=0;exitX=1;exitY=0;exitDx=0;exitDy=0;" edge="1" parent="1" source="Sr-PRYDG-KULMoOuulKo-46" target="Sr-PRYDG-KULMoOuulKo-42">
          <mxGeometry width="50" height="50" relative="1" as="geometry">
            <mxPoint x="699" y="151" as="sourcePoint" />
            <mxPoint x="721" y="129" as="targetPoint" />
          </mxGeometry>
        </mxCell>
        <mxCell id="Sr-PRYDG-KULMoOuulKo-49" value="" style="endArrow=none;html=1;rounded=0;entryX=1;entryY=1;entryDx=0;entryDy=0;exitX=0;exitY=0;exitDx=0;exitDy=0;" edge="1" parent="1" source="Sr-PRYDG-KULMoOuulKo-47" target="Sr-PRYDG-KULMoOuulKo-42">
          <mxGeometry width="50" height="50" relative="1" as="geometry">
            <mxPoint x="779" y="191" as="sourcePoint" />
            <mxPoint x="801" y="159" as="targetPoint" />
          </mxGeometry>
        </mxCell>
        <mxCell id="Sr-PRYDG-KULMoOuulKo-50" value="" style="ellipse;whiteSpace=wrap;html=1;aspect=fixed;" vertex="1" parent="1">
          <mxGeometry x="830" y="180" width="10" height="10" as="geometry" />
        </mxCell>
        <mxCell id="Sr-PRYDG-KULMoOuulKo-51" value="" style="ellipse;whiteSpace=wrap;html=1;aspect=fixed;" vertex="1" parent="1">
          <mxGeometry x="870" y="180" width="10" height="10" as="geometry" />
        </mxCell>
        <mxCell id="Sr-PRYDG-KULMoOuulKo-52" value="" style="endArrow=none;html=1;rounded=0;entryX=1;entryY=1;entryDx=0;entryDy=0;exitX=0;exitY=0;exitDx=0;exitDy=0;" edge="1" parent="1" source="Sr-PRYDG-KULMoOuulKo-51" target="Sr-PRYDG-KULMoOuulKo-44">
          <mxGeometry width="50" height="50" relative="1" as="geometry">
            <mxPoint x="811" y="191" as="sourcePoint" />
            <mxPoint x="789" y="159" as="targetPoint" />
          </mxGeometry>
        </mxCell>
        <mxCell id="Sr-PRYDG-KULMoOuulKo-53" value="" style="endArrow=none;html=1;rounded=0;entryX=0;entryY=1;entryDx=0;entryDy=0;exitX=1;exitY=0;exitDx=0;exitDy=0;" edge="1" parent="1" source="Sr-PRYDG-KULMoOuulKo-50" target="Sr-PRYDG-KULMoOuulKo-44">
          <mxGeometry width="50" height="50" relative="1" as="geometry">
            <mxPoint x="759" y="191" as="sourcePoint" />
            <mxPoint x="781" y="159" as="targetPoint" />
          </mxGeometry>
        </mxCell>
        <mxCell id="Sr-PRYDG-KULMoOuulKo-54" value="" style="ellipse;whiteSpace=wrap;html=1;aspect=fixed;" vertex="1" parent="1">
          <mxGeometry x="760" y="80" width="10" height="10" as="geometry" />
        </mxCell>
        <mxCell id="Sr-PRYDG-KULMoOuulKo-55" value="" style="endArrow=none;html=1;rounded=0;entryX=0;entryY=1;entryDx=0;entryDy=0;exitX=1;exitY=0;exitDx=0;exitDy=0;" edge="1" parent="1" source="Sr-PRYDG-KULMoOuulKo-28" target="Sr-PRYDG-KULMoOuulKo-54">
          <mxGeometry width="50" height="50" relative="1" as="geometry">
            <mxPoint x="689" y="151" as="sourcePoint" />
            <mxPoint x="721" y="129" as="targetPoint" />
          </mxGeometry>
        </mxCell>
        <mxCell id="Sr-PRYDG-KULMoOuulKo-56" value="" style="endArrow=none;html=1;rounded=0;entryX=1;entryY=1;entryDx=0;entryDy=0;exitX=0;exitY=0;exitDx=0;exitDy=0;" edge="1" parent="1" source="Sr-PRYDG-KULMoOuulKo-41" target="Sr-PRYDG-KULMoOuulKo-54">
          <mxGeometry width="50" height="50" relative="1" as="geometry">
            <mxPoint x="699" y="161" as="sourcePoint" />
            <mxPoint x="731" y="139" as="targetPoint" />
          </mxGeometry>
        </mxCell>
        <mxCell id="Sr-PRYDG-KULMoOuulKo-59" value="높이 1" style="text;html=1;align=center;verticalAlign=middle;whiteSpace=wrap;rounded=0;" vertex="1" parent="1">
          <mxGeometry x="455" y="60" width="60" height="20" as="geometry" />
        </mxCell>
        <mxCell id="Sr-PRYDG-KULMoOuulKo-60" value="높이 2" style="text;html=1;align=center;verticalAlign=middle;whiteSpace=wrap;rounded=0;" vertex="1" parent="1">
          <mxGeometry x="555" y="60" width="60" height="20" as="geometry" />
        </mxCell>
        <mxCell id="Sr-PRYDG-KULMoOuulKo-61" value="높이 3" style="text;html=1;align=center;verticalAlign=middle;whiteSpace=wrap;rounded=0;" vertex="1" parent="1">
          <mxGeometry x="735" y="60" width="60" height="20" as="geometry" />
        </mxCell>
      </root>
    </mxGraphModel>
  </diagram>
  <diagram id="wYlBgcLVzb7qhl8v3dNM" name="페이지-7">
    <mxGraphModel dx="595" dy="363" grid="1" gridSize="10" guides="1" tooltips="1" connect="1" arrows="1" fold="1" page="1" pageScale="1" pageWidth="1169" pageHeight="827" math="0" shadow="0">
      <root>
        <mxCell id="0" />
        <mxCell id="1" parent="0" />
        <mxCell id="SJ_99MQ3L8IlOlV1H9f3-1" value="" style="ellipse;whiteSpace=wrap;html=1;aspect=fixed;" vertex="1" parent="1">
          <mxGeometry x="110" y="120" width="10" height="10" as="geometry" />
        </mxCell>
        <mxCell id="SJ_99MQ3L8IlOlV1H9f3-2" value="" style="ellipse;whiteSpace=wrap;html=1;aspect=fixed;" vertex="1" parent="1">
          <mxGeometry x="90" y="160" width="10" height="10" as="geometry" />
        </mxCell>
        <mxCell id="SJ_99MQ3L8IlOlV1H9f3-3" value="" style="endArrow=none;html=1;rounded=0;entryX=0;entryY=1;entryDx=0;entryDy=0;exitX=0.5;exitY=0;exitDx=0;exitDy=0;" edge="1" parent="1" source="SJ_99MQ3L8IlOlV1H9f3-2" target="SJ_99MQ3L8IlOlV1H9f3-1">
          <mxGeometry width="50" height="50" relative="1" as="geometry">
            <mxPoint x="190" y="280" as="sourcePoint" />
            <mxPoint x="100" y="140" as="targetPoint" />
          </mxGeometry>
        </mxCell>
        <mxCell id="SJ_99MQ3L8IlOlV1H9f3-4" value="" style="ellipse;whiteSpace=wrap;html=1;aspect=fixed;" vertex="1" parent="1">
          <mxGeometry x="150" y="120" width="10" height="10" as="geometry" />
        </mxCell>
        <mxCell id="SJ_99MQ3L8IlOlV1H9f3-5" value="" style="endArrow=none;html=1;rounded=0;exitX=0.5;exitY=0;exitDx=0;exitDy=0;entryX=0.5;entryY=1;entryDx=0;entryDy=0;" edge="1" parent="1" source="SJ_99MQ3L8IlOlV1H9f3-4" target="SJ_99MQ3L8IlOlV1H9f3-27">
          <mxGeometry width="50" height="50" relative="1" as="geometry">
            <mxPoint x="40" y="210" as="sourcePoint" />
            <mxPoint x="70" y="180" as="targetPoint" />
          </mxGeometry>
        </mxCell>
        <mxCell id="SJ_99MQ3L8IlOlV1H9f3-7" value="" style="ellipse;whiteSpace=wrap;html=1;aspect=fixed;" vertex="1" parent="1">
          <mxGeometry x="130" y="160" width="10" height="10" as="geometry" />
        </mxCell>
        <mxCell id="SJ_99MQ3L8IlOlV1H9f3-9" value="" style="endArrow=none;html=1;rounded=0;entryX=1;entryY=1;entryDx=0;entryDy=0;exitX=0.5;exitY=0;exitDx=0;exitDy=0;" edge="1" parent="1" source="SJ_99MQ3L8IlOlV1H9f3-7" target="SJ_99MQ3L8IlOlV1H9f3-1">
          <mxGeometry width="50" height="50" relative="1" as="geometry">
            <mxPoint x="49" y="191" as="sourcePoint" />
            <mxPoint x="71" y="159" as="targetPoint" />
          </mxGeometry>
        </mxCell>
        <mxCell id="SJ_99MQ3L8IlOlV1H9f3-14" value="" style="ellipse;whiteSpace=wrap;html=1;aspect=fixed;" vertex="1" parent="1">
          <mxGeometry x="190" y="120" width="10" height="10" as="geometry" />
        </mxCell>
        <mxCell id="SJ_99MQ3L8IlOlV1H9f3-27" value="" style="ellipse;whiteSpace=wrap;html=1;aspect=fixed;" vertex="1" parent="1">
          <mxGeometry x="150" y="80" width="10" height="10" as="geometry" />
        </mxCell>
        <mxCell id="SJ_99MQ3L8IlOlV1H9f3-28" value="" style="endArrow=none;html=1;rounded=0;entryX=0;entryY=1;entryDx=0;entryDy=0;exitX=0.5;exitY=0;exitDx=0;exitDy=0;" edge="1" parent="1" source="SJ_99MQ3L8IlOlV1H9f3-1" target="SJ_99MQ3L8IlOlV1H9f3-27">
          <mxGeometry width="50" height="50" relative="1" as="geometry">
            <mxPoint x="79" y="151" as="sourcePoint" />
            <mxPoint x="111" y="129" as="targetPoint" />
          </mxGeometry>
        </mxCell>
        <mxCell id="SJ_99MQ3L8IlOlV1H9f3-29" value="" style="endArrow=none;html=1;rounded=0;entryX=1;entryY=1;entryDx=0;entryDy=0;exitX=0.5;exitY=0;exitDx=0;exitDy=0;" edge="1" parent="1" source="SJ_99MQ3L8IlOlV1H9f3-14" target="SJ_99MQ3L8IlOlV1H9f3-27">
          <mxGeometry width="50" height="50" relative="1" as="geometry">
            <mxPoint x="89" y="161" as="sourcePoint" />
            <mxPoint x="121" y="139" as="targetPoint" />
          </mxGeometry>
        </mxCell>
        <mxCell id="SJ_99MQ3L8IlOlV1H9f3-34" value="" style="ellipse;whiteSpace=wrap;html=1;aspect=fixed;" vertex="1" parent="1">
          <mxGeometry x="190" y="160" width="10" height="10" as="geometry" />
        </mxCell>
        <mxCell id="SJ_99MQ3L8IlOlV1H9f3-35" value="" style="endArrow=none;html=1;rounded=0;exitX=0.5;exitY=0;exitDx=0;exitDy=0;entryX=0.5;entryY=1;entryDx=0;entryDy=0;" edge="1" parent="1" source="SJ_99MQ3L8IlOlV1H9f3-34" target="SJ_99MQ3L8IlOlV1H9f3-14">
          <mxGeometry width="50" height="50" relative="1" as="geometry">
            <mxPoint x="165" y="130" as="sourcePoint" />
            <mxPoint x="165" y="100" as="targetPoint" />
          </mxGeometry>
        </mxCell>
        <mxCell id="SJ_99MQ3L8IlOlV1H9f3-36" value="" style="ellipse;whiteSpace=wrap;html=1;aspect=fixed;" vertex="1" parent="1">
          <mxGeometry x="210" y="120" width="10" height="10" as="geometry" />
        </mxCell>
        <mxCell id="SJ_99MQ3L8IlOlV1H9f3-37" value="" style="ellipse;whiteSpace=wrap;html=1;aspect=fixed;" vertex="1" parent="1">
          <mxGeometry x="210" y="160" width="10" height="10" as="geometry" />
        </mxCell>
        <mxCell id="SJ_99MQ3L8IlOlV1H9f3-38" value="" style="endArrow=none;html=1;rounded=0;entryX=0.5;entryY=1;entryDx=0;entryDy=0;exitX=0.5;exitY=0;exitDx=0;exitDy=0;" edge="1" parent="1" source="SJ_99MQ3L8IlOlV1H9f3-37" target="SJ_99MQ3L8IlOlV1H9f3-36">
          <mxGeometry width="50" height="50" relative="1" as="geometry">
            <mxPoint x="290" y="280" as="sourcePoint" />
            <mxPoint x="200" y="140" as="targetPoint" />
          </mxGeometry>
        </mxCell>
        <mxCell id="SJ_99MQ3L8IlOlV1H9f3-39" value="" style="ellipse;whiteSpace=wrap;html=1;aspect=fixed;" vertex="1" parent="1">
          <mxGeometry x="250" y="120" width="10" height="10" as="geometry" />
        </mxCell>
        <mxCell id="SJ_99MQ3L8IlOlV1H9f3-40" value="" style="endArrow=none;html=1;rounded=0;exitX=0.5;exitY=0;exitDx=0;exitDy=0;entryX=0.5;entryY=1;entryDx=0;entryDy=0;" edge="1" parent="1" source="SJ_99MQ3L8IlOlV1H9f3-39" target="SJ_99MQ3L8IlOlV1H9f3-44">
          <mxGeometry width="50" height="50" relative="1" as="geometry">
            <mxPoint x="140" y="210" as="sourcePoint" />
            <mxPoint x="170" y="180" as="targetPoint" />
          </mxGeometry>
        </mxCell>
        <mxCell id="SJ_99MQ3L8IlOlV1H9f3-41" value="" style="ellipse;whiteSpace=wrap;html=1;aspect=fixed;" vertex="1" parent="1">
          <mxGeometry x="270" y="160" width="10" height="10" as="geometry" />
        </mxCell>
        <mxCell id="SJ_99MQ3L8IlOlV1H9f3-42" value="" style="endArrow=none;html=1;rounded=0;entryX=0;entryY=1;entryDx=0;entryDy=0;exitX=0.5;exitY=0;exitDx=0;exitDy=0;" edge="1" parent="1" source="SJ_99MQ3L8IlOlV1H9f3-41" target="SJ_99MQ3L8IlOlV1H9f3-43">
          <mxGeometry width="50" height="50" relative="1" as="geometry">
            <mxPoint x="149" y="191" as="sourcePoint" />
            <mxPoint x="171" y="159" as="targetPoint" />
          </mxGeometry>
        </mxCell>
        <mxCell id="SJ_99MQ3L8IlOlV1H9f3-43" value="" style="ellipse;whiteSpace=wrap;html=1;aspect=fixed;" vertex="1" parent="1">
          <mxGeometry x="290" y="120" width="10" height="10" as="geometry" />
        </mxCell>
        <mxCell id="SJ_99MQ3L8IlOlV1H9f3-44" value="" style="ellipse;whiteSpace=wrap;html=1;aspect=fixed;" vertex="1" parent="1">
          <mxGeometry x="250" y="80" width="10" height="10" as="geometry" />
        </mxCell>
        <mxCell id="SJ_99MQ3L8IlOlV1H9f3-45" value="" style="endArrow=none;html=1;rounded=0;entryX=0;entryY=1;entryDx=0;entryDy=0;exitX=1;exitY=0;exitDx=0;exitDy=0;" edge="1" parent="1" source="SJ_99MQ3L8IlOlV1H9f3-36" target="SJ_99MQ3L8IlOlV1H9f3-44">
          <mxGeometry width="50" height="50" relative="1" as="geometry">
            <mxPoint x="179" y="151" as="sourcePoint" />
            <mxPoint x="211" y="129" as="targetPoint" />
          </mxGeometry>
        </mxCell>
        <mxCell id="SJ_99MQ3L8IlOlV1H9f3-46" value="" style="endArrow=none;html=1;rounded=0;entryX=1;entryY=1;entryDx=0;entryDy=0;exitX=0;exitY=0;exitDx=0;exitDy=0;" edge="1" parent="1" source="SJ_99MQ3L8IlOlV1H9f3-43" target="SJ_99MQ3L8IlOlV1H9f3-44">
          <mxGeometry width="50" height="50" relative="1" as="geometry">
            <mxPoint x="189" y="161" as="sourcePoint" />
            <mxPoint x="221" y="139" as="targetPoint" />
          </mxGeometry>
        </mxCell>
        <mxCell id="SJ_99MQ3L8IlOlV1H9f3-47" value="" style="ellipse;whiteSpace=wrap;html=1;aspect=fixed;" vertex="1" parent="1">
          <mxGeometry x="310" y="160" width="10" height="10" as="geometry" />
        </mxCell>
        <mxCell id="SJ_99MQ3L8IlOlV1H9f3-48" value="" style="endArrow=none;html=1;rounded=0;exitX=0.5;exitY=0;exitDx=0;exitDy=0;entryX=1;entryY=1;entryDx=0;entryDy=0;" edge="1" parent="1" source="SJ_99MQ3L8IlOlV1H9f3-47" target="SJ_99MQ3L8IlOlV1H9f3-43">
          <mxGeometry width="50" height="50" relative="1" as="geometry">
            <mxPoint x="265" y="130" as="sourcePoint" />
            <mxPoint x="300" y="130" as="targetPoint" />
          </mxGeometry>
        </mxCell>
        <mxCell id="SJ_99MQ3L8IlOlV1H9f3-52" value="" style="ellipse;whiteSpace=wrap;html=1;aspect=fixed;" vertex="1" parent="1">
          <mxGeometry x="330" y="120" width="10" height="10" as="geometry" />
        </mxCell>
        <mxCell id="SJ_99MQ3L8IlOlV1H9f3-53" value="" style="ellipse;whiteSpace=wrap;html=1;aspect=fixed;" vertex="1" parent="1">
          <mxGeometry x="330" y="160" width="10" height="10" as="geometry" />
        </mxCell>
        <mxCell id="SJ_99MQ3L8IlOlV1H9f3-54" value="" style="endArrow=none;html=1;rounded=0;entryX=0.5;entryY=1;entryDx=0;entryDy=0;exitX=0.5;exitY=0;exitDx=0;exitDy=0;" edge="1" parent="1" source="SJ_99MQ3L8IlOlV1H9f3-53" target="SJ_99MQ3L8IlOlV1H9f3-52">
          <mxGeometry width="50" height="50" relative="1" as="geometry">
            <mxPoint x="410" y="280" as="sourcePoint" />
            <mxPoint x="320" y="140" as="targetPoint" />
          </mxGeometry>
        </mxCell>
        <mxCell id="SJ_99MQ3L8IlOlV1H9f3-55" value="" style="ellipse;whiteSpace=wrap;html=1;aspect=fixed;" vertex="1" parent="1">
          <mxGeometry x="370" y="120" width="10" height="10" as="geometry" />
        </mxCell>
        <mxCell id="SJ_99MQ3L8IlOlV1H9f3-56" value="" style="endArrow=none;html=1;rounded=0;exitX=0.5;exitY=0;exitDx=0;exitDy=0;entryX=0.5;entryY=1;entryDx=0;entryDy=0;" edge="1" parent="1" source="SJ_99MQ3L8IlOlV1H9f3-55" target="SJ_99MQ3L8IlOlV1H9f3-60">
          <mxGeometry width="50" height="50" relative="1" as="geometry">
            <mxPoint x="260" y="210" as="sourcePoint" />
            <mxPoint x="290" y="180" as="targetPoint" />
          </mxGeometry>
        </mxCell>
        <mxCell id="SJ_99MQ3L8IlOlV1H9f3-57" value="" style="ellipse;whiteSpace=wrap;html=1;aspect=fixed;" vertex="1" parent="1">
          <mxGeometry x="370" y="160" width="10" height="10" as="geometry" />
        </mxCell>
        <mxCell id="SJ_99MQ3L8IlOlV1H9f3-58" value="" style="endArrow=none;html=1;rounded=0;entryX=0.5;entryY=1;entryDx=0;entryDy=0;exitX=0.5;exitY=0;exitDx=0;exitDy=0;" edge="1" parent="1" source="SJ_99MQ3L8IlOlV1H9f3-57" target="SJ_99MQ3L8IlOlV1H9f3-55">
          <mxGeometry width="50" height="50" relative="1" as="geometry">
            <mxPoint x="269" y="191" as="sourcePoint" />
            <mxPoint x="291" y="159" as="targetPoint" />
          </mxGeometry>
        </mxCell>
        <mxCell id="SJ_99MQ3L8IlOlV1H9f3-59" value="" style="ellipse;whiteSpace=wrap;html=1;aspect=fixed;" vertex="1" parent="1">
          <mxGeometry x="410" y="120" width="10" height="10" as="geometry" />
        </mxCell>
        <mxCell id="SJ_99MQ3L8IlOlV1H9f3-60" value="" style="ellipse;whiteSpace=wrap;html=1;aspect=fixed;" vertex="1" parent="1">
          <mxGeometry x="370" y="80" width="10" height="10" as="geometry" />
        </mxCell>
        <mxCell id="SJ_99MQ3L8IlOlV1H9f3-61" value="" style="endArrow=none;html=1;rounded=0;entryX=0;entryY=1;entryDx=0;entryDy=0;exitX=1;exitY=0;exitDx=0;exitDy=0;" edge="1" parent="1" source="SJ_99MQ3L8IlOlV1H9f3-52" target="SJ_99MQ3L8IlOlV1H9f3-60">
          <mxGeometry width="50" height="50" relative="1" as="geometry">
            <mxPoint x="299" y="151" as="sourcePoint" />
            <mxPoint x="331" y="129" as="targetPoint" />
          </mxGeometry>
        </mxCell>
        <mxCell id="SJ_99MQ3L8IlOlV1H9f3-62" value="" style="endArrow=none;html=1;rounded=0;entryX=1;entryY=1;entryDx=0;entryDy=0;exitX=0;exitY=0;exitDx=0;exitDy=0;" edge="1" parent="1" source="SJ_99MQ3L8IlOlV1H9f3-59" target="SJ_99MQ3L8IlOlV1H9f3-60">
          <mxGeometry width="50" height="50" relative="1" as="geometry">
            <mxPoint x="309" y="161" as="sourcePoint" />
            <mxPoint x="341" y="139" as="targetPoint" />
          </mxGeometry>
        </mxCell>
        <mxCell id="SJ_99MQ3L8IlOlV1H9f3-63" value="" style="ellipse;whiteSpace=wrap;html=1;aspect=fixed;" vertex="1" parent="1">
          <mxGeometry x="410" y="160" width="10" height="10" as="geometry" />
        </mxCell>
        <mxCell id="SJ_99MQ3L8IlOlV1H9f3-64" value="" style="endArrow=none;html=1;rounded=0;exitX=0.5;exitY=0;exitDx=0;exitDy=0;entryX=0.5;entryY=1;entryDx=0;entryDy=0;" edge="1" parent="1" source="SJ_99MQ3L8IlOlV1H9f3-63" target="SJ_99MQ3L8IlOlV1H9f3-59">
          <mxGeometry width="50" height="50" relative="1" as="geometry">
            <mxPoint x="385" y="130" as="sourcePoint" />
            <mxPoint x="420" y="130" as="targetPoint" />
          </mxGeometry>
        </mxCell>
        <mxCell id="SJ_99MQ3L8IlOlV1H9f3-65" value="Tree 1" style="text;html=1;align=center;verticalAlign=middle;whiteSpace=wrap;rounded=0;" vertex="1" parent="1">
          <mxGeometry x="125" y="170" width="60" height="30" as="geometry" />
        </mxCell>
        <mxCell id="SJ_99MQ3L8IlOlV1H9f3-66" value="Tree 2" style="text;html=1;align=center;verticalAlign=middle;whiteSpace=wrap;rounded=0;" vertex="1" parent="1">
          <mxGeometry x="225" y="170" width="60" height="30" as="geometry" />
        </mxCell>
        <mxCell id="SJ_99MQ3L8IlOlV1H9f3-67" value="Tree 3" style="text;html=1;align=center;verticalAlign=middle;whiteSpace=wrap;rounded=0;" vertex="1" parent="1">
          <mxGeometry x="345" y="170" width="60" height="30" as="geometry" />
        </mxCell>
      </root>
    </mxGraphModel>
  </diagram>
</mxfile>
